<svg width="40" height="40" viewBox="0 0 40 40" fill="none" xmlns="http://www.w3.org/2000/svg">
<path d="M11.6654 35C9.82442 35 8.33203 33.5076 8.33203 31.6667V8.33333C8.33203 6.49238 9.82442 5 11.6654 5H23.332L31.6654 13.3333V31.6667C31.6654 33.5076 30.173 35 28.332 35H11.6654Z" stroke="#F5CDAA" stroke-linecap="round" stroke-linejoin="round"/>
<path d="M21.668 5V15H31.668" stroke="#F5CDAA" stroke-linejoin="round"/>
<path d="M23.8242 29V23.3125H27.6023V24.1575H24.7992V25.7744H27.3586V26.6194H24.7992V29H23.8242Z" fill="#F5CDAA"/>
<path d="M18.0938 29V23.3125H19.9219C20.496 23.3125 20.9862 23.4154 21.3925 23.6212C21.7987 23.8217 22.1075 24.125 22.3188 24.5313C22.5354 24.9321 22.6438 25.4331 22.6438 26.0344V26.1969C22.6438 26.8035 22.5327 27.3154 22.3106 27.7325C22.0885 28.1496 21.7663 28.4665 21.3438 28.6831C20.9267 28.8944 20.4256 29 19.8406 29H18.0938ZM19.0688 28.155H19.7594C20.1331 28.155 20.4581 28.0927 20.7344 27.9681C21.016 27.8381 21.2327 27.6296 21.3844 27.3425C21.5415 27.0554 21.62 26.6735 21.62 26.1969V26.0344C21.62 25.5902 21.5415 25.23 21.3844 24.9538C21.2273 24.6775 21.0133 24.4771 20.7425 24.3525C20.4771 24.2225 20.1765 24.1575 19.8406 24.1575H19.0688V28.155Z" fill="#F5CDAA"/>
<path d="M12.7305 29V23.3125H14.8023C15.3115 23.3125 15.7313 23.3883 16.0617 23.54C16.3921 23.6863 16.6359 23.8948 16.793 24.1656C16.9555 24.4365 17.0367 24.756 17.0367 25.1244C17.0367 25.4927 16.9555 25.8123 16.793 26.0831C16.6359 26.354 16.3921 26.5652 16.0617 26.7169C15.7313 26.8631 15.3115 26.9363 14.8023 26.9363H13.7055V29H12.7305ZM13.7055 26.0913H14.7211C15.2357 26.0913 15.5878 26.0127 15.7773 25.8556C15.9669 25.6931 16.0617 25.4494 16.0617 25.1244C16.0617 24.8048 15.9669 24.5638 15.7773 24.4013C15.5878 24.2388 15.2357 24.1575 14.7211 24.1575H13.7055V26.0913Z" fill="#F5CDAA"/>
</svg>
