<svg width="720" height="320" viewBox="0 0 720 320" fill="none" xmlns="http://www.w3.org/2000/svg">
<g opacity="0.1">
<path d="M405.659 420.169L563.418 371.844L583.185 354.871L604.294 348.405L562.091 210.634L533.081 202.14L455.968 134.185L441.753 87.7819L441.029 86.8362C440.575 86.242 429.862 72.5772 408.653 79.0739C401.94 81.1303 394.876 85.0595 387.637 90.7261L385.901 92.0726L385.322 94.1781C384.914 95.6881 375.379 131.415 382.608 161.139L382.771 161.849L407.753 212.151L323.715 237.894C320.98 238.732 307.947 243.24 302.114 254.831C298.687 261.666 298.437 269.373 301.421 277.693C301.634 278.388 306.963 293.566 320.045 299.336C319.151 303.521 318.824 309.025 320.673 315.058C323.456 324.145 330.212 331.907 340.846 338.209C339.839 342.292 339.335 348.014 341.304 354.445C343.997 363.234 350.585 370.802 360.877 376.965C358.83 383.512 357.807 394.2 366.143 405.877C373.541 416.266 389.07 425.142 405.654 420.062L405.659 420.169ZM556.878 359.996L401.78 407.507C389.946 411.132 380.376 403.065 376.951 398.275C369.219 387.418 374.312 378.742 374.945 377.788L379.189 371.491L372.33 368.188C362.329 363.24 356.191 357.407 354.061 350.808C351.878 344.036 354.72 338.576 354.84 338.349L358.274 332.246L351.959 329.21C341.706 324.149 335.467 318.076 333.368 311.223C331.193 304.123 334.319 298.168 334.361 298.128L339.418 289.246L329.244 288.262C318.956 287.258 314.018 273.536 313.972 273.387C312.205 268.415 312.207 264.341 313.989 260.835C317.537 253.773 327.094 250.791 327.492 250.669L426.623 220.303L395.351 157.371C390.147 134.876 395.804 107.533 397.625 99.8059C402.896 95.8828 407.915 93.1777 412.539 91.761C422.485 88.7145 427.967 92.4939 429.839 94.2559L444.366 141.677L526.508 214.066L551.485 221.379L587.717 339.659L576.653 343.049L556.886 360.021L556.878 359.996Z" fill="#AE9073"/>
<path d="M598.048 373.294L719.729 336.019L665.715 159.691L544.033 196.965L598.048 373.294ZM703.162 327.216L606.866 356.715L560.617 205.735L656.913 176.237L703.162 327.216Z" fill="#AE9073"/>
<path d="M314.071 -168.386L156.313 -120.06L136.546 -103.088L115.437 -96.6216L157.64 41.1491L186.649 49.6435L263.762 117.598L277.977 164.001L278.702 164.947C279.156 165.541 289.869 179.206 311.077 172.709C317.791 170.653 324.855 166.724 332.094 161.057L333.83 159.711L334.409 157.605C334.816 156.095 344.351 120.368 337.123 90.6445L336.959 89.9341L311.977 39.6321L396.016 13.8889C398.751 13.0511 411.784 8.54269 417.616 -3.04785C421.043 -9.88234 421.293 -17.5902 418.309 -25.9098C418.096 -26.605 412.767 -41.7832 399.686 -47.5528C400.58 -51.7374 400.906 -57.2418 399.058 -63.275C396.274 -72.362 389.518 -80.1235 378.885 -86.4258C379.891 -90.509 380.396 -96.2309 378.426 -102.661C375.734 -111.45 369.145 -119.019 358.854 -125.182C360.901 -131.729 361.924 -142.417 353.587 -154.094C346.189 -164.483 330.661 -173.359 314.077 -168.279L314.071 -168.386ZM162.852 -108.213L317.95 -155.724C329.785 -159.349 339.355 -151.282 342.78 -146.492C350.512 -135.635 345.418 -126.959 344.786 -126.005L340.541 -119.708L347.4 -116.404C357.401 -111.456 363.54 -105.624 365.67 -99.0253C367.853 -92.2529 365.011 -86.7927 364.89 -86.5656L361.456 -80.4624L367.771 -77.4269C378.024 -72.366 384.263 -66.2928 386.363 -59.4403C388.538 -52.3395 385.412 -46.385 385.37 -46.3449L380.312 -37.4631L390.486 -36.4788C400.775 -35.4753 405.713 -21.7524 405.758 -21.6034C407.526 -16.6319 407.523 -12.5573 405.742 -9.05138C402.193 -1.98978 392.636 0.992149 392.238 1.11402L293.108 31.4803L324.379 94.4123C329.584 116.907 323.926 144.25 322.105 151.977C316.834 155.9 311.816 158.605 307.191 160.022C297.246 163.069 291.764 159.289 289.891 157.527L275.365 110.106L193.222 37.7176L168.246 30.4046L132.013 -87.876L143.077 -91.2653L162.845 -108.238L162.852 -108.213Z" fill="#AE9073"/>
<path d="M121.683 -121.51L0.00133365 -84.236L54.0155 92.0925L175.697 54.8181L121.683 -121.51ZM16.5681 -75.4333L112.864 -104.931L159.113 46.0478L62.8171 75.5459L16.5681 -75.4333Z" fill="#AE9073"/>
</g>
</svg>
