<svg width="320" height="328" viewBox="0 0 320 328" fill="none" xmlns="http://www.w3.org/2000/svg">
<g opacity="0.1">
<path d="M190.602 284.353L275.226 258.431L285.829 249.326L297.153 245.858L274.514 171.956L258.953 167.399L217.589 130.948L209.964 106.056L209.575 105.549C209.331 105.23 203.585 97.9001 192.208 101.385C188.607 102.488 184.818 104.596 180.935 107.635L180.004 108.358L179.693 109.487C179.474 110.297 174.36 129.462 178.237 145.406L178.325 145.787L191.726 172.769L146.646 186.578C145.179 187.028 138.188 189.446 135.06 195.664C133.221 199.33 133.087 203.464 134.688 207.927C134.802 208.3 137.661 216.442 144.677 219.537C144.198 221.781 144.023 224.734 145.014 227.97C146.507 232.845 150.132 237.008 155.835 240.389C155.296 242.579 155.025 245.648 156.082 249.098C157.526 253.812 161.06 257.872 166.58 261.178C165.482 264.69 164.934 270.423 169.405 276.687C173.374 282.26 181.704 287.021 190.599 284.296L190.602 284.353ZM271.718 252.076L188.522 277.561C182.173 279.506 177.04 275.178 175.203 272.609C171.055 266.785 173.787 262.131 174.127 261.619L176.403 258.241L172.724 256.47C167.359 253.815 164.067 250.687 162.924 247.147C161.753 243.514 163.278 240.585 163.342 240.464L165.184 237.19L161.797 235.561C156.297 232.847 152.95 229.589 151.824 225.913C150.658 222.104 152.334 218.91 152.357 218.889L155.07 214.124L149.612 213.596C144.093 213.058 141.445 205.697 141.42 205.617C140.472 202.95 140.473 200.765 141.429 198.884C143.332 195.096 148.459 193.496 148.672 193.431L201.847 177.142L185.073 143.385C182.281 131.318 185.316 116.651 186.293 112.506C189.12 110.402 191.812 108.951 194.293 108.191C199.628 106.556 202.568 108.584 203.573 109.529L211.365 134.966L255.427 173.796L268.825 177.719L288.261 241.167L282.326 242.985L271.722 252.089L271.718 252.076Z" fill="#AE9073"/>
<path d="M293.802 259.208L359.074 239.214L330.1 144.629L264.828 164.623L293.802 259.208ZM350.187 234.492L298.533 250.315L273.724 169.328L325.379 153.505L350.187 234.492Z" fill="#AE9073"/>
<path d="M141.472 -31.3572L56.8482 -5.43464L46.2448 3.66972L34.9216 7.13831L57.5598 81.0403L73.1211 85.5969L114.486 122.048L122.111 146.94L122.499 147.447C122.743 147.766 128.489 155.096 139.866 151.611C143.467 150.508 147.256 148.4 151.139 145.361L152.071 144.638L152.381 143.509C152.6 142.699 157.714 123.534 153.837 107.59L153.749 107.209L140.349 80.2266L185.428 66.4176C186.895 65.9682 193.886 63.5498 197.015 57.3325C198.853 53.6664 198.987 49.5318 197.387 45.069C197.272 44.6961 194.414 36.5544 187.397 33.4594C187.876 31.2148 188.051 28.2622 187.06 25.0259C185.567 20.1515 181.943 15.9881 176.239 12.6075C176.779 10.4172 177.049 7.34785 175.993 3.89846C174.548 -0.816127 171.014 -4.87598 165.494 -8.18166C166.592 -11.6937 167.141 -17.4268 162.669 -23.6905C158.7 -29.2635 150.371 -34.0248 141.475 -31.2998L141.472 -31.3572ZM60.3559 0.920421L143.553 -24.565C149.901 -26.5097 155.034 -22.1822 156.872 -19.6129C161.019 -13.7889 158.287 -9.13516 157.948 -8.62334L155.671 -5.24541L159.35 -3.4735C164.715 -0.819335 168.007 2.30932 169.15 5.8489C170.321 9.48172 168.797 12.4107 168.732 12.5325L166.89 15.8063L170.277 17.4346C175.777 20.1493 179.124 23.407 180.25 27.0828C181.417 30.8918 179.74 34.0859 179.717 34.1074L177.005 38.8717L182.462 39.3997C187.981 39.938 190.63 47.2991 190.654 47.3791C191.602 50.0459 191.601 52.2315 190.645 54.1121C188.742 57.9001 183.615 59.4996 183.402 59.565L130.227 75.8539L147.001 109.611C149.793 121.678 146.758 136.345 145.781 140.49C142.954 142.595 140.262 144.046 137.781 144.805C132.446 146.44 129.506 144.412 128.501 143.467L120.709 118.03L76.6468 79.1996L63.2491 75.2769L43.8134 11.8295L49.7484 10.0115L60.3518 0.9071L60.3559 0.920421Z" fill="#AE9073"/>
<path d="M38.2721 -6.21239L-26.9995 13.7821L1.97445 108.367L67.2461 88.3726L38.2721 -6.21239ZM-18.1129 18.504L33.5416 2.68083L58.3502 83.6681L6.69572 99.4913L-18.1129 18.504Z" fill="#AE9073"/>
</g>
</svg>
