<svg width="39" height="39" viewBox="0 0 39 39" fill="none" xmlns="http://www.w3.org/2000/svg">
<g clip-path="url(#clip0_44_5580)">
<mask id="mask0_44_5580" style="mask-type:luminance" maskUnits="userSpaceOnUse" x="0" y="0" width="39" height="39">
<path d="M38.4 0H0V38.4H38.4V0Z" fill="white"/>
</mask>
<g mask="url(#mask0_44_5580)">
<mask id="mask1_44_5580" style="mask-type:luminance" maskUnits="userSpaceOnUse" x="0" y="0" width="39" height="39">
<path d="M38.4 0H0V38.4H38.4V0Z" fill="white"/>
</mask>
<g mask="url(#mask1_44_5580)">
<path d="M0.115234 18.3751C0.115234 9.73506 0.115234 5.39586 2.78404 2.70786C5.49124 0.0390627 9.81124 0.0390625 18.4704 0.0390625H20.0064C28.6464 0.0390625 32.9856 0.0390627 35.6736 2.70786C38.3424 5.37666 38.3424 9.73506 38.3424 18.3751V19.9111C38.3424 28.5511 38.3424 32.8903 35.6736 35.5783C33.0048 38.2471 28.6464 38.2471 20.0064 38.2471H18.4704C9.83044 38.2471 5.49124 38.2471 2.80324 35.5783C0.115235 32.8903 0.115234 28.5703 0.115234 19.9111V18.3751Z" fill="#FF7700"/>
<path d="M19.2197 19.0468C21.0821 19.0468 22.7717 18.2788 23.9813 17.0692C25.1909 15.8596 25.9589 14.17 25.9589 12.3076C25.9589 10.4452 25.1909 8.75556 23.9813 7.54596C22.7717 6.33636 21.0821 5.56836 19.2197 5.56836C17.3573 5.56836 15.6677 6.33636 14.4581 7.54596C13.2485 8.73636 12.4805 10.426 12.4805 12.3076C12.4805 14.1892 13.2485 15.8596 14.4581 17.0692C15.6677 18.2788 17.3765 19.0468 19.2197 19.0468ZM17.0693 10.1188C17.6261 9.56196 18.3941 9.21636 19.2389 9.21636C20.1029 9.21636 20.8517 9.56196 21.4085 10.1188C21.9653 10.6756 22.3109 11.4436 22.3109 12.2884C22.3109 13.1524 21.9653 13.9012 21.4085 14.458C20.8517 15.0148 20.0837 15.3604 19.2389 15.3604C18.3749 15.3604 17.6261 15.0148 17.0693 14.458C16.5125 13.9012 16.1669 13.1332 16.1669 12.2884C16.1669 11.4436 16.5317 10.6756 17.0693 10.1188Z" fill="white"/>
<path d="M28.3197 21.773L26.3421 19.0658C26.2269 18.9122 25.9965 18.893 25.8621 19.0274C23.9997 20.621 21.6957 21.6578 19.2189 21.6578C16.7421 21.6578 14.4573 20.621 12.5757 19.0274C12.4413 18.9122 12.2109 18.9314 12.0957 19.0658L10.1181 21.773C10.0221 21.9074 10.0413 22.0802 10.1565 22.1954C11.8269 23.5394 13.7661 24.461 15.7821 24.941L11.5965 32.3138C11.4813 32.525 11.6349 32.7938 11.8653 32.7938H15.9549C16.0893 32.7938 16.2045 32.717 16.2429 32.5826L19.1613 26.0546L22.0797 32.5826C22.1181 32.6978 22.2333 32.7938 22.3677 32.7938H26.4573C26.7069 32.7938 26.8413 32.5442 26.7261 32.3138L22.5405 24.941C24.5565 24.461 26.4957 23.5778 28.1661 22.1954C28.4157 22.0802 28.4349 21.9074 28.3197 21.773Z" fill="white"/>
</g>
</g>
</g>
<defs>
<clipPath id="clip0_44_5580">
<rect width="38.4" height="38.4" fill="white"/>
</clipPath>
</defs>
</svg>
