<svg width="39" height="39" viewBox="0 0 39 39" fill="none" xmlns="http://www.w3.org/2000/svg">
<path d="M0 18.2495C0 9.64661 0 5.34517 2.67258 2.67258C5.34517 0 9.64661 0 18.2495 0H19.7703C28.3732 0 32.6746 0 35.3472 2.67258C38.0198 5.34517 38.0198 9.64661 38.0198 18.2495V19.7703C38.0198 28.3732 38.0198 32.6746 35.3472 35.3472C32.6746 38.0198 28.3732 38.0198 19.7703 38.0198H18.2495C9.64661 38.0198 5.34517 38.0198 2.67258 35.3472C0 32.6746 0 28.3732 0 19.7703V18.2495Z" fill="#29A9EA"/>
<path fill-rule="evenodd" clip-rule="evenodd" d="M9.42984 18.4383C15.0286 15.9999 18.761 14.391 20.6273 13.6153C25.961 11.3958 27.067 11.0118 27.7889 11.0002C27.9463 10.9964 28.3034 11.0386 28.5338 11.223C28.7297 11.3804 28.7834 11.5916 28.8065 11.7414C28.8295 11.8911 28.8641 12.2329 28.8372 12.4978C28.5492 15.5353 27.2974 22.9004 26.6638 26.3026C26.395 27.7426 25.865 28.2226 25.3505 28.2726C24.2369 28.3762 23.3882 27.5353 22.3092 26.8287C20.6196 25.7228 19.6634 25.0316 18.0238 23.9487C16.1268 22.7007 17.3556 22.0134 18.4385 20.8921C18.7226 20.6002 23.634 16.1305 23.73 15.7234C23.7415 15.6735 23.753 15.4854 23.6417 15.3855C23.5303 15.2857 23.3652 15.3202 23.2423 15.3471C23.0734 15.3855 20.3738 17.1711 15.1438 20.7001C14.3758 21.2262 13.6846 21.4834 13.0625 21.4681C12.3751 21.4527 11.058 21.0802 10.0788 20.7615C8.87688 20.3698 7.92072 20.1625 8.0052 19.502C8.04744 19.1526 8.5236 18.7993 9.42984 18.4383Z" fill="white"/>
</svg>
