<svg width="20" height="20" viewBox="0 0 20 20" fill="none" xmlns="http://www.w3.org/2000/svg">
<path d="M12.5184 3.67859C13.1693 4.32946 13.1693 5.38473 12.5184 6.03561L6.03658 12.5174C5.38571 13.1683 4.33044 13.1683 3.67956 12.5174C3.02869 11.8665 3.02869 10.8113 3.67956 10.1604L10.1614 3.67858C10.8122 3.02771 11.8675 3.02771 12.5184 3.67859ZM12.5184 3.67859C12.8438 3.35315 13.3715 3.35314 13.6969 3.67858L14.8754 4.85709C15.2008 5.18253 15.2008 5.71017 14.8754 6.0356L11.3399 9.57114C11.0144 9.89657 11.0144 10.4242 11.3399 10.7496L12.5183 11.9282M12.5183 11.9282C12.1928 12.2536 12.1928 12.7812 12.5183 13.1067L16.0538 16.6422C16.3793 16.9676 16.9069 16.9676 17.2323 16.6422C17.5578 16.3168 17.5578 15.7891 17.2323 15.4637L13.6968 11.9282C13.3714 11.6027 12.8437 11.6027 12.5183 11.9282Z" stroke="white"/>
</svg>
