<svg width="32" height="32" viewBox="0 0 32 32" fill="none" xmlns="http://www.w3.org/2000/svg">
<path d="M5.33398 10.667H26.6673" stroke="#CB9F78" stroke-width="1.5" stroke-linecap="round" stroke-linejoin="round"/>
<path d="M21.334 4V6.66667" stroke="#CB9F78" stroke-width="1.5" stroke-linecap="round" stroke-linejoin="round"/>
<path d="M10.666 4V6.66667" stroke="#CB9F78" stroke-width="1.5" stroke-linecap="round" stroke-linejoin="round"/>
<path d="M4 7.99967C4 6.52692 5.19391 5.33301 6.66667 5.33301H25.3333C26.8061 5.33301 28 6.52692 28 7.99967V25.333C28 26.8058 26.8061 27.9997 25.3333 27.9997H6.66667C5.19391 27.9997 4 26.8058 4 25.333V7.99967Z" stroke="#CB9F78" stroke-width="1.5" stroke-linecap="round" stroke-linejoin="round"/>
<path d="M21.334 22H21.3367V22.0027H21.334V22Z" stroke="#CB9F78" stroke-width="1.5" stroke-linecap="round" stroke-linejoin="round"/>
<path d="M16 22H16.0027V22.0027H16V22Z" stroke="#CB9F78" stroke-width="1.5" stroke-linecap="round" stroke-linejoin="round"/>
<path d="M10.666 22H10.6687V22.0027H10.666V22Z" stroke="#CB9F78" stroke-width="1.5" stroke-linecap="round" stroke-linejoin="round"/>
<path d="M21.334 16.667H21.3367V16.6697H21.334V16.667Z" stroke="#CB9F78" stroke-width="1.5" stroke-linecap="round" stroke-linejoin="round"/>
<path d="M16 16.667H16.0027V16.6697H16V16.667Z" stroke="#CB9F78" stroke-width="1.5" stroke-linecap="round" stroke-linejoin="round"/>
<path d="M10.666 16.667H10.6687V16.6697H10.666V16.667Z" stroke="#CB9F78" stroke-width="1.5" stroke-linecap="round" stroke-linejoin="round"/>
</svg>
