<svg width="173" height="8" viewBox="0 0 173 8" fill="none" xmlns="http://www.w3.org/2000/svg">
<path d="M15.4297 3.4668L15.6895 2.85938C16.3828 1.38609 16.8166 0.519572 16.9033 0.172852H19.3066C19.281 0.23038 19.2433 0.288175 19.2432 0.345703C19.2432 0.432379 19.1562 0.51977 19.1562 0.606445C18.8096 1.38639 18.4629 2.16681 18.1162 2.77344C17.7696 3.38006 17.4225 4.15961 16.9893 4.93945C16.6426 5.63286 16.0362 6.24045 15.3428 6.67383C14.5628 7.10709 13.6959 7.28026 12.5693 7.28027C12.396 6.76025 12.3093 6.41334 12.2227 6.15332C12.136 5.89329 12.0493 5.63307 11.876 5.37305C12.3093 5.4597 12.6563 5.45996 13.0029 5.45996C13.3494 5.45996 13.6092 5.45965 13.8691 5.37305C13.3491 4.24629 12.4826 2.51283 11.1826 0.172852H13.7822L15.4297 3.4668Z" fill="white"/>
<path d="M77.0537 0.108398C79.2206 0.108398 80.6943 0.715504 81.3877 2.01562C80.781 2.18898 80.0874 2.44851 79.2207 2.88184C79.0473 2.53538 78.7008 2.27511 78.2676 2.18848C77.8344 2.01521 77.401 1.92875 76.9678 1.92871C76.2744 1.92871 75.8408 2.10231 75.4941 2.3623C75.1474 2.62233 74.9736 3.05588 74.9736 3.48926C74.9737 3.92256 75.1475 4.35623 75.4941 4.61621C75.8408 4.87606 76.3607 5.04876 77.0537 5.04883C77.6604 5.04883 78.0947 4.96241 78.4414 4.78906C78.7879 4.61571 79.0474 4.35535 79.2207 4.00879C79.7407 4.2688 80.521 4.5293 81.3877 4.87598C81.041 5.56928 80.4343 6.08961 79.6543 6.34961C78.8743 6.6096 78.0071 6.78223 77.0537 6.78223C75.4938 6.86884 74.3669 6.60959 73.5869 6.00293C72.8936 5.39629 72.4601 4.61604 72.46 3.57617C72.46 2.53621 72.8071 1.66922 73.5869 1.0625C74.2803 0.455826 75.4938 0.10846 77.0537 0.108398Z" fill="white"/>
<path d="M84.7695 2.62207H85.1162C86.1561 1.66883 87.023 0.975539 87.543 0.282227H90.8359L87.6289 3.05566C88.0622 3.22898 88.4961 3.40217 88.8428 3.66211C89.2762 4.00881 89.5359 4.26951 89.7959 4.61621C89.9692 4.9629 90.23 5.39601 90.4033 5.91602C90.5767 6.34934 90.7493 6.60986 90.8359 6.7832H87.8027C87.8027 6.69653 87.7156 6.52272 87.6289 6.2627C87.5423 6.00274 87.4558 5.74264 87.3691 5.56934C87.2825 5.39602 87.1958 5.22215 87.0225 5.04883C86.7626 4.87562 86.5026 4.70289 86.1562 4.61621C85.8096 4.52956 85.376 4.5293 84.7695 4.5293V6.69629H82.1689C82.2556 5.56955 82.2559 4.44267 82.2559 3.48926C82.2559 2.53585 82.2556 1.40898 82.1689 0.282227H84.7695V2.62207Z" fill="white"/>
<path fill-rule="evenodd" clip-rule="evenodd" d="M100.714 6.7832H98.1143C98.0276 6.4365 97.7671 6.00247 97.5938 5.48242H94.2998L93.7803 6.7832H91.1797L94.04 0.369141H97.8535L100.714 6.7832ZM95.9473 1.58203C95.6873 2.10202 95.3405 2.96886 94.9072 4.00879H96.9502C96.7026 3.43084 96.4546 2.84878 96.207 2.18848L95.9473 1.58203Z" fill="white"/>
<path fill-rule="evenodd" clip-rule="evenodd" d="M112.764 0.282227V3.57617C112.764 4.70282 112.764 5.7432 112.851 6.7832H110.424V4.70215H105.656C104.963 5.5689 104.443 6.26315 104.183 6.7832H101.496L103.143 4.78906C103.143 4.70246 103.23 4.6159 103.316 4.5293C102.623 4.35595 102.103 4.09571 101.843 3.74902C101.583 3.40236 101.409 2.9692 101.409 2.44922C101.409 1.75582 101.669 1.23537 102.189 0.888672C102.71 0.455447 103.663 0.282227 105.05 0.282227H112.764ZM105.743 1.92871C105.223 1.92871 104.702 2.01562 104.442 2.01562C104.182 2.10219 103.923 2.10282 103.836 2.18945C103.749 2.1896 103.663 2.36258 103.663 2.44922C103.663 2.62246 103.749 2.70925 103.836 2.7959C103.923 2.88252 104.183 2.96866 104.442 2.96875C104.702 3.05543 105.136 3.05566 105.743 3.05566H110.077V2.96875H110.337V1.92871H105.743Z" fill="white"/>
<path d="M122.646 2.53516H122.992C124.032 1.58188 124.899 0.888644 125.419 0.195312H128.713L125.506 2.88184C125.939 3.05516 126.372 3.22927 126.719 3.48926C127.152 3.83595 127.5 4.09569 127.673 4.44238C127.846 4.789 128.106 5.22233 128.279 5.74219C128.453 6.17556 128.626 6.43602 128.713 6.60938H125.679C125.679 6.5227 125.593 6.34889 125.506 6.08887C125.419 5.82891 125.332 5.56881 125.245 5.39551C125.159 5.22228 125.072 5.0492 124.898 4.87598C124.639 4.70269 124.379 4.52906 124.032 4.44238C123.686 4.35572 123.252 4.35547 122.646 4.35547V6.60938H120.045C120.132 5.48262 120.132 4.35576 120.132 3.40234C120.132 2.44892 120.132 1.32208 120.045 0.195312H122.646V2.53516Z" fill="white"/>
<path fill-rule="evenodd" clip-rule="evenodd" d="M138.679 6.60938H135.992C135.906 6.26276 135.645 5.82945 135.472 5.30957H132.178L131.745 6.60938H129.145L132.005 0.195312H135.818L138.679 6.60938ZM133.911 1.40918C133.651 1.92929 133.304 2.79618 132.871 3.83594H134.915C134.667 3.25784 134.42 2.67608 134.172 2.01562L133.911 1.40918Z" fill="white"/>
<path fill-rule="evenodd" clip-rule="evenodd" d="M150.209 0.195312C151.596 0.195338 152.549 0.368413 153.069 0.801758C153.589 1.23505 153.849 1.75533 153.936 2.53516C153.936 3.05521 153.762 3.48924 153.589 3.83594C153.329 4.18255 152.982 4.52884 152.462 4.70215C151.855 4.96209 151.162 5.04881 150.209 5.04883H141.801V6.60938H139.287C139.374 5.48262 139.374 4.35576 139.374 3.40234C139.374 2.44891 139.374 1.32209 139.287 0.195312H150.209ZM141.715 3.31543H149.429C150.035 3.31542 150.468 3.22856 150.729 3.22852C150.989 3.22852 151.249 3.14234 151.336 3.05566C151.423 2.96892 151.508 2.79529 151.422 2.62207C151.422 2.44876 151.336 2.27513 151.249 2.18848C151.162 2.10182 150.902 2.01562 150.642 2.01562C150.382 1.92907 149.948 1.92871 149.342 1.92871H141.715V3.31543Z" fill="white"/>
<path d="M163.556 2.01562C162.516 2.0156 161.476 1.92871 160.436 1.92871V6.60938H157.836V1.92871C156.796 1.92871 155.755 1.92895 154.715 2.01562V0.108398H163.556V2.01562Z" fill="white"/>
<path fill-rule="evenodd" clip-rule="evenodd" d="M172.83 6.60938H170.23C170.144 6.26275 169.883 5.82946 169.71 5.30957H166.416L165.896 6.60938H163.296L166.156 0.195312H169.97L172.83 6.60938ZM168.063 1.40918C167.803 1.92926 167.457 2.79601 167.023 3.83594H169.067C168.82 3.25773 168.571 2.67621 168.323 2.01562L168.063 1.40918Z" fill="white"/>
<path d="M42.2969 2.33984H42.6436C43.6835 1.38654 44.5503 0.693339 45.0703 0H48.3643L45.1572 2.77344C45.5904 2.9467 46.0235 3.12007 46.3701 3.37988C46.8035 3.72658 47.0642 3.98728 47.3242 4.33398C47.4976 4.68062 47.7574 5.11392 47.9307 5.63379C48.104 6.06717 48.2776 6.32763 48.3643 6.50098H45.3301C45.3301 6.4143 45.2439 6.2405 45.1572 5.98047C45.0706 5.72052 44.9841 5.46044 44.8975 5.28711C44.8109 5.11391 44.7238 4.94078 44.5508 4.76758C44.2908 4.59424 44.0303 4.42067 43.6836 4.33398C43.3369 4.24731 42.9035 4.24707 42.2969 4.24707V6.41406H39.6963C39.783 5.2873 39.7832 4.16045 39.7832 3.20703C39.7832 2.16693 39.783 1.12678 39.6963 0H42.2969V2.33984Z" fill="white"/>
<path d="M10.4014 0.0859375C10.3147 1.03935 10.3145 2.07954 10.3145 3.29297C10.3145 4.41975 10.3147 5.4599 10.4014 6.5H7.97461V1.81934H2.42676V6.5H0C0.0866742 5.37323 0.0869141 4.33307 0.0869141 3.29297C0.0869141 2.25288 0.0866738 1.2127 0 0.0859375H10.4014Z" fill="white"/>
<path d="M22.1885 4.7666H28.1689V0.0859375H30.4219V4.7666H36.4023V0.0859375H38.8301C38.7434 1.03935 38.7429 2.07954 38.6562 3.29297C38.6562 4.41975 38.6565 5.4599 38.7432 6.5H19.7607C19.8474 5.37322 19.8477 4.33307 19.8477 3.29297C19.8477 2.33955 19.8474 1.2127 19.7607 0.0859375H22.1885V4.7666Z" fill="white"/>
<path d="M51.8311 5.11328L54.3447 0.0859375H58.1582C58.0715 1.12602 58.0723 2.16621 58.0723 3.29297C58.0723 4.41973 58.0715 5.54658 58.1582 6.5H55.5586L55.6445 1.64648L53.1318 6.5H49.4912C49.5779 5.37323 49.5781 4.24639 49.5781 3.29297C49.5781 2.33955 49.5779 1.2127 49.4912 0.0859375H52.0049L51.8311 5.11328Z" fill="white"/>
<path d="M61.3662 2.5127H69.2539V0.0859375H71.6807C71.594 1.03935 71.5938 2.07954 71.5938 3.29297C71.5938 4.41975 71.594 5.4599 71.6807 6.5H69.2539V4.07324H61.3662V6.5H58.9395C59.0261 5.37324 59.0254 4.33306 59.0254 3.29297C59.0254 2.33955 59.0261 1.2127 58.9395 0.0859375H61.3662V2.5127Z" fill="white"/>
<path d="M19.3301 0.172852H19.3066C19.3196 0.143824 19.3301 0.114965 19.3301 0.0859375V0.172852Z" fill="white"/>
</svg>
