<svg width="32" height="32" viewBox="0 0 32 32" fill="none" xmlns="http://www.w3.org/2000/svg">
<path d="M29.3327 8.66699C29.3327 7.56242 28.4373 6.66699 27.3327 6.66699H4.66602C3.56145 6.66699 2.66602 7.56242 2.66602 8.66699V12.0003C4.87515 12.0003 6.66602 13.7912 6.66602 16.0003C6.66602 18.2095 4.87515 20.0003 2.66602 20.0003V23.3337C2.66602 24.4382 3.56144 25.3337 4.66601 25.3337H27.3327C28.4373 25.3337 29.3327 24.4382 29.3327 23.3337V20.0003C27.1235 20.0003 25.3327 18.2095 25.3327 16.0003C25.3327 13.7912 27.1235 12.0003 29.3327 12.0003V8.66699Z" stroke="#CB9F78" stroke-width="1.5" stroke-linecap="round" stroke-linejoin="round"/>
<path d="M12 6.66699V25.3337" stroke="#CB9F78" stroke-width="1.5" stroke-linecap="round"/>
</svg>
