<svg width="20" height="20" viewBox="0 0 20 20" fill="none" xmlns="http://www.w3.org/2000/svg">
<path d="M3.33301 6.66669H16.6663" stroke="#694B43" stroke-linecap="round" stroke-linejoin="round"/>
<path d="M13.333 2.5V4.16667" stroke="#694B43" stroke-linecap="round" stroke-linejoin="round"/>
<path d="M6.66699 2.5V4.16667" stroke="#694B43" stroke-linecap="round" stroke-linejoin="round"/>
<path d="M2.5 4.99998C2.5 4.07951 3.24619 3.33331 4.16667 3.33331H15.8333C16.7538 3.33331 17.5 4.07951 17.5 4.99998V15.8333C17.5 16.7538 16.7538 17.5 15.8333 17.5H4.16667C3.24619 17.5 2.5 16.7538 2.5 15.8333V4.99998Z" stroke="#694B43" stroke-linecap="round" stroke-linejoin="round"/>
<path d="M13.333 13.75H13.3347V13.7517H13.333V13.75Z" stroke="#694B43" stroke-linecap="round" stroke-linejoin="round"/>
<path d="M10 13.75H10.0017V13.7517H10V13.75Z" stroke="#694B43" stroke-linecap="round" stroke-linejoin="round"/>
<path d="M6.66699 13.75H6.66866V13.7517H6.66699V13.75Z" stroke="#694B43" stroke-linecap="round" stroke-linejoin="round"/>
<path d="M13.333 10.4167H13.3347V10.4184H13.333V10.4167Z" stroke="#694B43" stroke-linecap="round" stroke-linejoin="round"/>
<path d="M10 10.4167H10.0017V10.4184H10V10.4167Z" stroke="#694B43" stroke-linecap="round" stroke-linejoin="round"/>
<path d="M6.66699 10.4167H6.66866V10.4184H6.66699V10.4167Z" stroke="#694B43" stroke-linecap="round" stroke-linejoin="round"/>
</svg>
