<svg width="36" height="36" viewBox="0 0 36 36" fill="none" xmlns="http://www.w3.org/2000/svg">
<path d="M10.5 31.5C8.84315 31.5 7.5 30.1569 7.5 28.5V7.5C7.5 5.84315 8.84315 4.5 10.5 4.5H21L28.5 12V28.5C28.5 30.1569 27.1569 31.5 25.5 31.5H10.5Z" stroke="#694B43" stroke-linecap="round" stroke-linejoin="round"/>
<path d="M19.5 4.5V13.5H28.5" stroke="#694B43" stroke-linejoin="round"/>
<path d="M21.4414 26.1002V20.9814H24.8417V21.7419H22.3189V23.1971H24.6223V23.9576H22.3189V26.1002H21.4414Z" fill="#694B43"/>
<path d="M16.2852 26.1002V20.9814H17.9305C18.4472 20.9814 18.8884 21.0741 19.254 21.2593C19.6197 21.4397 19.8975 21.7127 20.0877 22.0783C20.2827 22.4391 20.3802 22.89 20.3802 23.4311V23.5774C20.3802 24.1234 20.2802 24.5841 20.0803 24.9594C19.8805 25.3348 19.5904 25.62 19.2102 25.815C18.8348 26.0051 18.3838 26.1002 17.8573 26.1002H16.2852ZM17.1627 25.3397H17.7842C18.1206 25.3397 18.4131 25.2836 18.6617 25.1715C18.9152 25.0545 19.1102 24.8668 19.2467 24.6084C19.3881 24.3501 19.4588 24.0064 19.4588 23.5774V23.4311C19.4588 23.0314 19.3881 22.7072 19.2467 22.4586C19.1053 22.2099 18.9128 22.0296 18.669 21.9174C18.4302 21.8004 18.1596 21.7419 17.8573 21.7419H17.1627V25.3397Z" fill="#694B43"/>
<path d="M11.457 26.1002V20.9814H13.3217C13.78 20.9814 14.1578 21.0497 14.4552 21.1862C14.7525 21.3178 14.9719 21.5055 15.1133 21.7493C15.2595 21.993 15.3327 22.2806 15.3327 22.6121C15.3327 22.9436 15.2595 23.2313 15.1133 23.475C14.9719 23.7188 14.7525 23.9089 14.4552 24.0454C14.1578 24.177 13.78 24.2428 13.3217 24.2428H12.3345V26.1002H11.457ZM12.3345 23.4823H13.2486C13.7117 23.4823 14.0286 23.4116 14.1992 23.2703C14.3698 23.124 14.4552 22.9046 14.4552 22.6121C14.4552 22.3245 14.3698 22.1076 14.1992 21.9613C14.0286 21.8151 13.7117 21.7419 13.2486 21.7419H12.3345V23.4823Z" fill="#694B43"/>
</svg>
