<svg width="296" height="60" viewBox="0 0 296 60" fill="none" xmlns="http://www.w3.org/2000/svg">
<path d="M65.9271 59.95C61.6798 59.95 57.4381 59.95 53.1908 59.95C53.03 59.95 52.8692 59.9389 52.7085 59.9279C52.3591 59.8946 52.1983 59.7227 52.1928 59.3512C52.1928 58.7247 52.1762 58.087 52.1096 57.466C51.8878 55.4921 51.2003 53.7011 50.047 52.071C49.0822 50.7014 47.9012 49.5925 46.5205 48.6776C46.0936 48.3948 45.7775 48.4946 45.6056 48.9881C45.0124 50.7236 44.9902 52.4646 45.5114 54.2223C45.8552 55.3701 46.3819 56.4291 46.9419 57.4771C47.1637 57.8929 47.441 58.0815 47.9178 58.0593C48.4889 58.0316 49.0656 58.0593 49.6367 58.0593C50.0193 58.0593 50.1967 58.2256 50.2022 58.6193C50.2189 60.0609 50.2632 59.9611 48.9269 59.9611C42.7557 59.9445 36.5899 59.9611 30.4186 59.9611C30.2578 59.9611 30.097 59.9611 29.9362 59.9445C29.537 59.9112 29.3041 59.7227 29.3374 59.2958C29.343 59.207 29.3374 59.1183 29.3374 59.0296C29.3263 58.1258 29.3374 58.1092 30.2578 58.0759C30.8012 58.0537 31.3446 58.0648 31.888 58.0815C32.265 58.0926 32.5533 57.9706 32.7252 57.6323C33.4405 56.2683 34.2778 54.9321 34.494 53.3906C34.7103 51.8492 34.7435 50.2856 34.0504 48.8107C33.9229 48.539 33.7344 48.4558 33.4849 48.5501C33.2021 48.661 32.9082 48.7885 32.6753 48.9826C31.5664 49.8753 30.463 50.7846 29.6645 51.9823C28.9715 53.0191 28.3726 54.1114 28.0067 55.3202C27.6407 56.5345 27.4467 57.7765 27.4411 59.0462C27.4411 59.8724 27.2859 59.9778 26.3266 59.9778C20.172 59.9778 14.0173 59.9667 7.86266 59.9611C5.64477 59.9611 3.42687 59.9611 1.20898 59.9611C1.12027 59.9611 1.03155 59.9611 0.942834 59.9611C0.0834007 59.9445 -0.00531506 59.878 0.000229671 59.0352C0.0224086 56.285 0.194295 53.5459 0.848574 50.8678C1.24225 49.2598 1.75791 47.6851 2.20703 46.0938C2.80032 43.9923 3.74847 42.035 4.7687 40.1221C5.94418 37.9208 7.33037 35.836 8.93279 33.9231C11.0342 31.4224 13.3298 29.1102 16.0079 27.225C17.638 26.0828 19.3624 25.0792 21.0591 24.0257C21.3142 23.8649 21.4583 23.6819 21.4306 23.3881C21.3696 22.8336 21.3197 22.2791 21.2199 21.7302C21.1977 21.5971 21.0092 21.4419 20.8706 21.3975C19.5011 20.9484 18.5141 20.1 17.8931 18.7804C17.1556 17.2168 16.6954 15.57 16.2962 13.901C16.2186 13.5739 16.1077 13.2523 16.0134 12.9307C15.9358 12.6757 15.9746 12.5259 16.2907 12.5648C16.6843 12.6147 16.7952 12.404 16.8063 12.0436C16.8174 11.5612 16.8784 11.0843 16.9228 10.6019C16.9505 10.2914 17.1501 10.175 17.4273 10.1528C19.0963 10.0197 20.7597 9.88666 22.4287 9.76467C22.8778 9.7314 23.0774 9.91438 23.1273 10.369C23.1495 10.5853 23.1495 10.8126 23.0996 11.0233C22.8722 12.0713 23.0109 13.1026 23.2936 14.1117C23.4489 14.6828 23.6762 14.7549 24.142 14.389C24.763 13.8955 25.1567 13.8567 25.8664 14.4333C26.2268 14.7272 26.1658 15.1098 26.1492 15.4868C26.1215 16.1023 26.1381 16.0801 26.748 15.9581C27.9845 15.7086 29.2321 15.5256 30.4741 15.2983C32.3205 14.9656 34.1613 14.5609 36.0188 14.3114C36.9503 14.1838 37.9151 14.2947 38.8633 14.3557C40.693 14.4832 42.5228 14.6385 44.347 14.8104C46.1435 14.9767 47.9344 15.1763 49.7309 15.3427C50.607 15.4258 51.4886 15.4591 52.3647 15.5312C52.6419 15.5534 52.9136 15.5977 53.1853 15.6587C53.6233 15.7474 53.7619 15.6088 53.64 15.1708C53.396 14.3003 53.6233 13.829 54.444 13.4575C54.8543 13.2689 55.1038 13.5517 55.3921 13.7402C55.6028 13.8733 55.8246 13.9953 56.0353 14.1228C56.1739 13.84 56.3735 13.5739 56.4456 13.2745C56.7173 12.1156 56.7395 10.9512 56.5066 9.78131C56.4234 9.35991 56.7007 9.12703 57.1886 9.17138C58.6469 9.29337 60.1051 9.4209 61.5689 9.54843C62.2565 9.60757 62.6428 9.98831 62.7278 10.6906C62.7555 10.9402 62.7721 11.1897 62.7777 11.4392C62.7777 11.7552 62.8553 11.9826 63.2268 12.0158C63.5484 12.0436 63.6038 12.2764 63.5262 12.5315C62.9884 14.2947 62.4894 16.069 61.8905 17.8101C61.3915 19.2462 60.3269 20.1999 58.9241 20.7543C58.5692 20.8929 58.3752 21.1203 58.3031 21.4807C58.1866 22.0851 58.0647 22.6894 57.9482 23.2938C57.8928 23.5655 57.9815 23.754 58.2365 23.9148C59.8722 24.9184 61.5079 25.9276 63.1159 26.9644C64.8126 28.0623 66.3152 29.4097 67.7291 30.8347C69.2318 32.3484 70.6568 33.9397 71.8988 35.7029C73.4402 37.8931 74.8319 40.1609 75.9686 42.5784C76.8779 44.519 77.5655 46.5484 78.1699 48.6055C78.7742 50.6571 79.1624 52.7474 79.3842 54.8655C79.545 56.3959 79.4951 57.9428 79.5228 59.4843C79.5283 59.878 79.2566 60.0055 78.8962 59.9999C78.0867 59.9889 77.2827 59.9778 76.4732 59.9778C72.9634 59.9778 69.4535 59.9778 65.9437 59.9778V59.9888L65.9271 59.95ZM40.9148 42.7725C41.4305 42.7725 41.9406 42.7669 42.4562 42.7725C42.8943 42.7725 43.1161 42.5895 43.1604 42.1625C43.2048 41.7522 43.2436 41.3475 43.2658 40.9371C43.3711 38.9022 43.4765 36.8618 43.5707 34.8269C43.604 34.106 43.6095 33.3908 43.6594 32.67C43.8202 30.197 44.0088 27.7241 44.164 25.2567C44.225 24.2752 44.2306 23.2883 44.2915 22.3069C44.3747 20.9151 44.5022 19.5289 44.5799 18.1372C44.6187 17.3776 44.5521 17.3388 43.8092 17.3277C43.7094 17.3277 43.604 17.3055 43.5042 17.3C41.6523 17.1336 39.7948 16.9728 37.9428 16.8065C37.5769 16.7732 37.4383 16.9451 37.4493 17.3C37.5381 19.3903 37.6157 21.4862 37.7099 23.5766C37.7876 25.2733 37.904 26.97 37.9816 28.6667C38.0315 29.7978 38.0371 30.9289 38.087 32.0545C38.1535 33.5737 38.2533 35.0985 38.3143 36.6178C38.3864 38.3034 38.4308 39.989 38.4973 41.6746C38.5084 41.9352 38.5361 42.2124 38.6359 42.4509C38.6969 42.595 38.9132 42.7558 39.0629 42.7669C39.6783 42.8002 40.2938 42.7835 40.9093 42.7835L40.9148 42.7725ZM45.8219 29.8976C45.8219 29.8976 45.8385 29.8976 45.8496 29.8976C45.7886 30.9067 45.7165 31.9159 45.6611 32.9306C45.5946 34.1449 45.5502 35.3647 45.4837 36.579C45.3949 38.2036 45.2951 39.8282 45.1953 41.4528C45.1842 41.597 45.1732 41.7467 45.1288 41.8853C44.907 42.5673 45.0179 42.7281 45.7387 42.7392C46.6037 42.7503 47.4742 42.7226 48.3392 42.7725C48.7384 42.7946 48.9768 42.6948 49.0545 42.3122C49.1654 41.7522 49.243 41.1922 49.3428 40.6322C49.5091 39.7229 49.6977 38.8191 49.8529 37.9097C50.1856 35.9303 50.5016 33.9452 50.8343 31.9658C51.1282 30.2358 51.4498 28.5114 51.7548 26.7815C51.9987 25.4119 52.2261 24.0368 52.47 22.6673C52.7195 21.2811 52.9801 19.9004 53.2297 18.5143C53.2796 18.2426 53.1853 18.0485 52.8803 18.0208C51.666 17.9099 50.4573 17.7934 49.243 17.6992C48.5721 17.6493 47.8956 17.6659 47.2247 17.5938C46.6702 17.5384 46.5039 17.6382 46.4873 18.2093C46.454 19.2794 46.454 20.3551 46.393 21.4252C46.2211 24.2531 46.0271 27.0753 45.8385 29.8976H45.8219ZM30.1414 44.9183C30.1414 44.9183 30.1414 44.9571 30.1414 44.9737C29.659 44.9737 29.1711 45.0014 28.6887 44.9626C28.4669 44.946 28.1453 44.8406 28.0677 44.6798C27.99 44.5246 28.1176 44.2085 28.2451 44.0256C28.8273 43.1772 28.9881 42.3511 28.3893 41.4195C27.7572 40.4326 27.186 39.4068 26.5983 38.3921C26.3488 37.9652 26.1991 37.8986 25.811 38.1648C25.2454 38.5529 24.6687 38.9355 24.1531 39.3902C23.1661 40.2662 22.1681 41.1368 21.2754 42.1015C20.4326 43.0109 19.6951 44.0256 18.9632 45.0347C18.5474 45.6003 18.6527 45.8442 19.246 46.188C21.0647 47.236 22.8778 48.2895 24.6909 49.3374C25.6058 49.8642 26.5151 50.3854 27.4356 50.9066C27.8681 51.1506 28.0122 51.1006 28.3005 50.6792C28.4724 50.4242 28.6665 50.1858 28.8716 49.9584C29.8752 48.8606 30.9454 47.8403 32.2151 47.0474C32.448 46.9033 32.5922 46.6981 32.4092 46.4708C32.132 46.127 32.1209 45.811 32.2983 45.4228C32.4092 45.1789 32.3648 44.9127 31.9822 44.9183C31.3668 44.9183 30.7513 44.9183 30.1358 44.9183H30.1414ZM59.4952 58.0482C61.0533 58.0482 62.6058 58.0482 64.1639 58.0482C64.7072 58.0482 64.8015 57.9706 64.7571 57.4438C64.6906 56.7285 64.5742 56.0188 64.5132 55.3091C64.3746 53.8231 64.0197 52.3926 63.5151 51.0008C63.127 49.9418 62.6723 48.9049 62.2121 47.8792C61.9903 47.3801 61.7519 47.3524 61.3083 47.6186C59.9665 48.4115 58.6247 49.1933 57.2773 49.9695C55.88 50.7735 54.4717 51.5719 53.0689 52.3593C52.7584 52.5312 52.6696 52.7031 52.8415 53.0579C53.5013 54.3942 53.9449 55.797 54.078 57.2886C54.1445 58.026 54.1667 58.0482 54.9208 58.0482C56.4456 58.0482 57.9759 58.0482 59.5007 58.0482H59.4952ZM20.1498 58.0482C20.427 58.0482 20.7098 58.0482 20.987 58.0482C22.3067 58.0482 23.6263 58.0482 24.9515 58.0482C25.2398 58.0482 25.5282 58.0371 25.5559 57.6434C25.6557 56.1242 26.1215 54.6936 26.7147 53.3074C26.87 52.947 26.7813 52.7419 26.4486 52.5534C25.2121 51.8547 23.9812 51.145 22.7503 50.4297C21.2033 49.5315 19.6563 48.6332 18.1093 47.735C17.6325 47.4578 17.5604 47.4799 17.3275 47.9901C17.1168 48.4392 16.9061 48.8938 16.712 49.3485C16.1188 50.707 15.6197 52.0987 15.3647 53.5625C15.1429 54.8156 15.0043 56.0798 14.8213 57.3385C14.7215 57.9927 14.7492 58.0426 15.409 58.0482C16.9948 58.0482 18.5806 58.0482 20.1609 58.0482H20.1498ZM49.4426 44.9848V44.9682C48.9602 44.9682 48.4723 44.9848 47.9899 44.9682C47.452 44.946 47.3411 45.0735 47.5574 45.5725C47.6905 45.8775 47.6738 46.1159 47.4576 46.3821C47.1804 46.7203 47.2247 46.931 47.5851 47.1861C47.9344 47.43 48.3337 47.6186 48.6331 47.9069C49.498 48.733 50.3519 49.5758 51.1615 50.4519C51.4775 50.7957 51.6716 50.9177 52.093 50.6903C53.03 50.1802 53.9726 49.6756 54.8986 49.1378C56.7783 48.0566 58.6469 46.9532 60.5154 45.8609C60.8592 45.6613 60.9202 45.4284 60.6818 45.1068C60.1328 44.3638 59.6116 43.5986 59.0184 42.9C57.4215 41.0259 55.6083 39.3902 53.5346 38.0539C53.1853 37.8266 52.9025 37.8598 52.7195 38.1981C52.0597 39.3957 51.2225 40.4991 51.0118 41.9241C50.8898 42.7226 51.0783 43.3547 51.4997 43.9923C51.6328 44.1919 51.8047 44.5412 51.7215 44.6577C51.594 44.8406 51.2724 44.9571 51.0173 44.9793C50.4906 45.0292 49.9638 44.9959 49.4315 44.9959L49.4426 44.9848ZM25.2121 36.1132C25.1123 35.9025 25.0458 35.7417 24.9626 35.592C24.3749 34.5607 23.7927 33.5294 23.1938 32.5036C22.9388 32.06 22.6671 31.622 22.3732 31.2006C22.1459 30.8679 21.9463 30.8901 21.7411 31.2283C21.6136 31.4446 21.5027 31.6664 21.3752 31.8826C20.4714 33.4019 19.0852 34.2225 17.3996 34.5995C17.2443 34.6328 16.9782 34.716 16.9727 34.7936C16.956 34.9488 17.0503 35.154 17.1667 35.276C18.381 36.5125 19.6119 37.7268 20.8207 38.9632C21.1312 39.2793 21.4084 39.3015 21.7411 39.0353C22.7835 38.2036 23.8315 37.383 24.8684 36.5457C25.007 36.4348 25.0957 36.2629 25.2121 36.1188V36.1132ZM69.1264 44.2363C69.1264 44.0588 69.1264 43.8814 69.1264 43.7095C69.1264 43.6818 69.1264 43.6485 69.1209 43.6208C69.071 43.2049 68.9157 43.1329 68.5775 43.3657C68.4111 43.4822 68.2392 43.5931 68.0563 43.6929C66.6923 44.4636 65.3227 45.2343 63.9587 46.005C63.6593 46.1714 63.6205 46.3821 63.7591 46.7037C64.3191 47.9901 64.868 49.2875 65.3837 50.5905C65.5223 50.9398 65.6998 51.0563 66.0435 50.962C66.5536 50.8179 67.0638 50.6848 67.5683 50.5462C68.7105 50.2301 69.8583 49.9196 70.995 49.5925C71.2001 49.5315 71.3776 49.3873 71.5661 49.282C71.4552 49.1101 71.3776 48.8994 71.2279 48.7663C69.8472 47.5742 69.1929 46.0438 69.1209 44.2418L69.1264 44.2363ZM62.7167 44.5468C62.8941 44.4636 63.0272 44.4082 63.1547 44.3361C64.5797 43.521 66.0103 42.7115 67.4242 41.8798C67.6127 41.7689 67.8511 41.5582 67.8567 41.3863C67.8567 41.2366 67.5739 41.0702 67.4131 40.9205C67.3854 40.8928 67.3354 40.8872 67.2911 40.8651C65.6166 40.0001 64.6573 38.5973 64.2359 36.7841C64.1971 36.6123 64.0918 36.3184 64.0142 36.3184C63.8201 36.3184 63.5817 36.4016 63.4431 36.5346C62.2232 37.7212 61.0311 38.93 59.8168 40.1276C59.5451 40.3938 59.5174 40.6433 59.7503 40.9371C60.6097 42.0295 61.4636 43.1329 62.3286 44.2196C62.4284 44.3472 62.5836 44.4359 62.7167 44.5468ZM13.8066 51.084C13.8565 51.0286 13.9785 50.9454 14.0229 50.829C14.594 49.4816 15.1595 48.1287 15.7251 46.7758C15.8249 46.5429 15.8193 46.3544 15.5754 46.2157C14.0339 45.3397 12.4925 44.4581 10.9455 43.5931C10.8069 43.5154 10.5685 43.4378 10.4742 43.5044C10.3744 43.5764 10.3578 43.8093 10.3578 43.9757C10.3023 45.9385 9.72014 47.6574 8.09554 48.9049C7.97355 48.9992 7.85157 49.2043 7.87375 49.3319C7.89593 49.4483 8.10108 49.5703 8.25079 49.6147C9.43182 49.9584 10.6128 50.2911 11.805 50.6072C12.4426 50.7791 13.0858 50.9177 13.8122 51.0896L13.8066 51.084ZM16.701 44.6965C16.8562 44.58 17.0226 44.4969 17.1279 44.3583C17.9818 43.277 18.8301 42.1958 19.6508 41.0924C19.7506 40.9593 19.7228 40.6932 19.6729 40.5102C19.6341 40.3716 19.4733 40.2607 19.3624 40.1498C18.1925 38.9799 17.0226 37.8044 15.8415 36.64C15.7195 36.5235 15.5255 36.4792 15.3647 36.4071C15.2926 36.5734 15.1817 36.7287 15.1595 36.9006C14.9655 38.1592 14.3223 39.1906 13.4517 40.0555C12.9527 40.549 12.2707 40.854 11.6608 41.231C11.3337 41.4362 11.3226 41.6025 11.6553 41.791C12.9084 42.5174 14.167 43.2382 15.4257 43.9646C15.8304 44.1975 16.2352 44.4248 16.701 44.6909V44.6965ZM58.0314 39.063C58.231 38.9244 58.4251 38.8246 58.5803 38.6804C59.0738 38.2036 59.5562 37.7046 60.0441 37.2166C60.7261 36.5291 61.4192 35.8526 62.0957 35.1595C62.4006 34.849 62.3563 34.6051 62.0125 34.4831C61.5745 34.3278 61.1364 34.1781 60.6984 34.0229C59.6615 33.6514 58.7855 33.0636 58.1977 32.1155C57.9427 31.7052 57.7098 31.2838 57.4492 30.8735C57.2551 30.563 57.0832 30.5685 56.9114 30.8901C56.8005 31.0953 56.7173 31.317 56.6008 31.5222C55.808 32.8917 55.0095 34.2613 54.2111 35.6253C54.0447 35.9136 54.0614 36.1243 54.3497 36.3406C55.4143 37.139 56.4622 37.9596 57.5213 38.7692C57.6654 38.8801 57.8429 38.9521 58.0425 39.063H58.0314ZM70.0136 58.0482C70.0136 58.0482 70.0136 58.0482 70.0136 58.0427C70.8785 58.0427 71.7435 58.0482 72.6085 58.0427C72.7748 58.0427 72.9356 57.9706 73.0964 57.9318C73.0244 57.782 72.9634 57.6323 72.8857 57.4882C72.8303 57.3884 72.7416 57.2997 72.6861 57.1999C71.6825 55.481 71.4995 53.6845 72.1871 51.8048C72.2259 51.6939 72.2315 51.5387 72.176 51.4389C72.1427 51.3779 71.9653 51.3557 71.871 51.3779C71.433 51.4888 71.0061 51.6329 70.568 51.7549C70.0025 51.9102 69.4369 52.0543 68.8713 52.2096C68.0674 52.4314 67.2634 52.6421 66.4705 52.8916C66.3429 52.9304 66.1821 53.1744 66.1988 53.3019C66.2764 53.9506 66.4317 54.5938 66.5148 55.2481C66.6035 55.9578 66.6701 56.6676 66.7034 57.3828C66.7311 57.9373 66.8087 58.0593 67.3632 58.0593C68.2448 58.0648 69.1208 58.0593 70.0025 58.0593L70.0136 58.0482ZM9.58153 58.0427C10.4631 58.0427 11.3392 58.0482 12.2208 58.0427C12.4759 58.0427 12.7365 58.0316 12.7697 57.6822C12.8418 57.0002 12.9028 56.3182 12.9971 55.6418C13.0969 54.921 13.23 54.2001 13.3353 53.4793C13.3852 53.1411 13.2688 52.947 12.8917 52.8583C11.8438 52.6088 10.8069 52.3039 9.75896 52.0266C9.03814 51.8326 8.31733 51.6496 7.59097 51.4721C7.49116 51.45 7.36918 51.4943 7.25828 51.5054C7.27492 51.6274 7.28046 51.7494 7.30819 51.8714C7.46898 52.5977 7.8183 53.3352 7.76285 54.0449C7.66305 55.2259 7.41908 56.4236 6.67054 57.4272C6.57628 57.5547 6.5541 57.7321 6.49311 57.8874C6.65391 57.9373 6.8147 58.0316 6.98105 58.0316C7.84602 58.0482 8.711 58.0371 9.57598 58.0371L9.58153 58.0427ZM19.1905 12.659C19.1905 12.659 19.1684 12.659 19.1573 12.659C19.2016 13.1969 19.2571 13.7347 19.2848 14.2781C19.3569 16.0579 19.9003 17.7269 20.5102 19.3792C20.6876 19.8616 21.0203 20.1555 21.5581 20.1888C21.8077 20.2054 22.0516 20.2498 22.3011 20.283C22.7447 20.3385 23.0275 20.5714 23.1273 21.0149C23.1717 21.1979 23.2881 21.3864 23.2715 21.5639C23.2105 22.4566 23.7816 22.8225 24.4913 23.0887C24.5578 23.1164 24.6188 23.1718 24.6909 23.1829C24.8295 23.1996 24.9959 23.2328 25.0957 23.1718C25.1678 23.1275 25.1899 22.9334 25.1678 22.8114C24.9792 21.6858 24.7852 20.5603 24.5745 19.4402C24.4414 18.725 24.2473 18.6085 23.5653 18.736C23.3879 18.7693 23.1107 18.7139 23.0164 18.5974C22.9277 18.481 22.9721 18.2038 23.0497 18.043C23.1772 17.7824 23.3768 17.555 23.5598 17.3332C23.8758 16.9451 23.8481 16.7732 23.4156 16.5015C22.839 16.1411 22.4176 15.6587 22.1459 15.0266C21.6968 13.9842 21.6635 12.8919 21.658 11.7885C21.658 11.2451 21.5526 11.1342 21.0148 11.1675C20.5157 11.1952 20.0223 11.2507 19.5288 11.2839C19.2571 11.3006 19.1905 11.4669 19.1905 11.6998C19.1905 12.0214 19.1905 12.343 19.1905 12.6646V12.659ZM60.3602 12.6036C60.3602 12.1212 60.3602 11.6332 60.3602 11.1509C60.3602 10.8015 60.1606 10.6629 59.8223 10.6574C59.4453 10.6518 59.0627 10.6186 58.6857 10.5853C58.17 10.5354 58.0258 10.6685 58.0092 11.1841C57.9926 11.7552 58.0092 12.3374 57.9039 12.8919C57.6987 14.023 57.4215 15.1431 56.3624 15.8417C56.1018 16.0136 56.1517 16.2243 56.3181 16.4461C56.6175 16.8453 56.9224 17.239 57.1997 17.6548C57.4603 18.0374 57.3217 18.3091 56.8615 18.3202C56.4511 18.3257 56.0408 18.2647 55.6305 18.2925C55.4697 18.3036 55.2036 18.4366 55.1814 18.5531C54.9485 19.6842 54.7545 20.8264 54.5548 21.9631C54.5327 22.0795 54.5327 22.196 54.5438 22.3124C54.5604 22.6229 54.7267 22.6894 54.9873 22.5619C55.198 22.4566 55.3921 22.3124 55.6083 22.2348C55.9965 22.0962 56.2183 21.8522 56.2793 21.4474C56.3125 21.2423 56.3735 21.0482 56.4123 20.8486C56.5898 19.9171 56.745 19.7674 57.6821 19.6232C57.7819 19.6066 57.8872 19.5899 57.987 19.5899C58.5415 19.5899 58.8742 19.3127 59.0793 18.8081C59.8889 16.8231 60.3879 14.7716 60.3546 12.6147L60.3602 12.6036ZM58.7966 28.5336C58.8576 29.0326 58.852 29.3986 58.9574 29.7257C59.2734 30.696 59.8279 31.4945 60.704 32.0711C61.9959 32.925 63.9753 32.9805 65.3227 31.9381C65.6887 31.6553 65.7219 31.4058 65.3671 31.1174C64.1472 30.1138 62.9218 29.1158 61.6687 28.151C61.081 27.6963 60.4378 27.3082 59.8057 26.9145C59.4231 26.6761 59.2568 26.7426 59.1292 27.1807C58.9851 27.6686 58.8853 28.1621 58.7966 28.5336ZM75.1203 48.4225C75.209 48.4114 75.4197 48.4225 75.6137 48.3671C75.9187 48.2895 76.0573 48.0732 75.9464 47.7627C75.5472 46.6482 75.1757 45.5171 74.7266 44.4248C74.3107 43.4101 73.8228 42.4176 73.3293 41.4362C73.0687 40.9205 72.7748 40.8983 72.359 41.3031C71.86 41.7855 71.4552 42.3289 71.2168 42.9998C70.3074 45.5781 72.1483 48.295 75.1203 48.4225ZM16.3017 32.8529C17.9762 32.8807 19.0297 32.1709 19.8892 30.8901C20.6211 29.8033 20.6045 28.5558 20.1886 27.3304C20.0444 26.9034 19.7118 26.8424 19.3569 27.1141C19.1795 27.2472 19.0076 27.3803 18.8246 27.4967C17.1057 28.6001 15.531 29.892 14.0339 31.2782C13.5959 31.683 13.6514 31.9713 14.1892 32.2596C14.8712 32.6256 15.5865 32.8751 16.3017 32.8474V32.8529ZM77.571 56.6121C77.4269 54.5772 77.1774 52.5645 76.6783 50.585C76.5785 50.2024 76.2957 50.097 75.9353 50.2856C74.2054 51.1783 73.1852 53.3463 73.7507 55.0818C74.2165 56.4957 75.647 57.8819 77.0997 58.0316C77.438 58.0648 77.5932 57.9262 77.5766 57.5769C77.5599 57.2553 77.5766 56.9337 77.5766 56.6121H77.571ZM66.0713 35.6475C65.8605 38.3644 68.7826 40.5546 71.4885 39.4401C71.8766 39.2793 71.9764 39.0908 71.7657 38.7802C71.2999 38.0705 70.8564 37.3442 70.3352 36.6788C69.4535 35.5477 68.5165 34.4609 67.6016 33.352C67.2079 32.8751 66.964 32.9028 66.6479 33.4462C66.2376 34.1449 66.0047 34.8878 66.0713 35.6419V35.6475ZM13.3464 35.8859C13.4462 34.9766 13.1523 34.2169 12.6755 33.5294C12.4093 33.1468 12.1598 33.1523 11.8549 33.4906C11.5998 33.7734 11.3448 34.0561 11.1119 34.3611C9.99184 35.8249 8.86626 37.2887 7.7684 38.7747C7.42463 39.2405 7.56324 39.551 8.13435 39.6951C8.38941 39.7617 8.65556 39.7838 8.91616 39.8282C9.78668 39.9613 10.6627 39.8504 11.3614 39.3735C12.5701 38.5474 13.5127 37.4828 13.3464 35.8914V35.8859ZM8.41159 44.4414C8.43377 43.144 7.94583 42.1404 7.00877 41.3419C6.67054 41.0591 6.44321 41.1035 6.25469 41.4972C5.84438 42.34 5.38416 43.1606 5.03485 44.0256C4.51364 45.3119 4.06452 46.6316 3.58767 47.9346C3.49341 48.2008 3.59876 48.3893 3.87045 48.4115C4.33621 48.4392 4.82969 48.5223 5.26772 48.4115C7.13075 47.918 8.51139 46.3821 8.41159 44.447V44.4414ZM5.93864 53.8619C5.87765 53.6013 5.80556 53.1799 5.67803 52.7807C5.31763 51.6718 4.54691 50.9121 3.52113 50.402C3.16073 50.2246 2.86131 50.3632 2.79477 50.6959C2.67834 51.267 2.53972 51.8436 2.46764 52.4203C2.27357 54.0615 2.10723 55.7083 1.94643 57.3551C1.88544 57.9927 2.17931 58.209 2.78923 57.9706C3.23281 57.7931 3.68748 57.6157 4.08115 57.3496C5.24 56.5567 5.87765 55.4422 5.94418 53.8619H5.93864ZM34.921 56.6953C34.9875 56.784 35.0596 56.9503 35.176 56.9947C35.2592 57.0224 35.4643 56.906 35.5087 56.8062C35.6695 56.4291 35.9689 56.2628 36.3293 56.1353C37.4438 55.7305 37.9872 54.8101 38.3088 53.7621C38.6415 52.692 38.6359 51.5997 38.3476 50.5074C38.2589 50.1691 38.0925 49.9972 37.7377 50.0028C37.4438 50.0028 37.1499 50.0028 36.8561 49.9862C36.3958 49.9584 36.296 49.8032 36.5067 49.404C36.6509 49.1323 36.8172 48.8717 37.0002 48.6277C37.2553 48.2784 37.222 48.0954 36.8062 47.9457C36.5012 47.8348 36.1962 47.7295 35.8857 47.6463C35.7138 47.6019 35.5309 47.613 35.3534 47.5964C35.3701 47.7738 35.3701 47.9623 35.4089 48.1342C35.6251 49.0713 35.9744 49.9972 36.0576 50.9454C36.2295 52.8361 35.8081 54.6493 35.0263 56.3737C34.993 56.4513 34.9653 56.54 34.9099 56.6953H34.921ZM42.545 50.0693C42.545 50.0693 42.5283 50.0139 42.5228 49.9862C42.3176 49.9972 42.0903 49.9584 41.9129 50.0361C41.7354 50.1081 41.5136 50.28 41.4804 50.4408C41.2586 51.5054 41.1144 52.5811 41.4637 53.6512C41.8408 54.799 42.3509 55.8303 43.6484 56.1963C43.8535 56.2517 44.0032 56.479 44.1917 56.6066C44.3193 56.6953 44.469 56.7618 44.6076 56.8339C44.6076 56.6842 44.6298 56.5289 44.5965 56.3848C44.3082 55.2204 43.9367 54.0726 43.7371 52.8916C43.5375 51.7383 43.5596 50.5573 43.9145 49.415C44.0642 48.9271 44.2416 48.4447 44.3914 47.9568C44.4302 47.8348 44.4024 47.6795 44.3636 47.5576C44.3525 47.5243 44.1751 47.5132 44.0864 47.5409C43.6983 47.6685 43.3157 47.8126 42.9331 47.9623C42.5782 48.1009 42.5339 48.2784 42.7667 48.6C42.8666 48.7441 42.9996 48.8717 43.0773 49.0269C43.2048 49.282 43.2935 49.5537 43.3988 49.8198L42.5505 50.0693H42.545ZM27.2914 19.9004C27.8958 19.7895 28.4946 19.6509 29.1045 19.5678C30.8289 19.3404 32.5589 19.1353 34.2889 18.919C34.6104 18.8802 34.8766 18.7416 34.8544 18.3756C34.8267 18.0097 34.7712 17.6437 34.6548 17.3C34.616 17.1891 34.3554 17.0671 34.2112 17.0837C33.629 17.1447 33.0579 17.2556 32.4757 17.3499C30.6737 17.6382 28.8661 17.9321 27.0641 18.2204C26.5484 18.3036 26.4486 18.42 26.5373 18.9412C26.5595 19.0854 26.6094 19.224 26.626 19.3737C26.6815 19.7563 26.9144 19.8949 27.2859 19.906L27.2914 19.9004ZM27.8847 22.0851C29.9085 21.8411 31.9323 21.5971 33.9562 21.3587C34.9819 21.2367 34.9819 21.2478 34.9376 20.2165C34.9154 19.6786 34.7934 19.5899 34.2445 19.6953C34.0726 19.7286 33.9007 19.7674 33.7233 19.7895C31.6163 20.0612 29.5093 20.3218 27.4023 20.6046C27.2526 20.6268 27.0474 20.7432 26.9975 20.8652C26.7591 21.4918 27.2249 22.0962 27.8847 22.0906V22.0851ZM35.2093 23.2772C35.1871 23.072 35.1705 22.9833 35.1649 22.8946C35.1039 22.0352 35.0208 21.9686 34.1835 22.0851C33.5625 22.1738 32.9415 22.268 32.3149 22.3457C30.8622 22.5176 29.4039 22.6673 27.9457 22.8502C27.4411 22.9112 27.3524 23.0665 27.43 23.5655C27.5354 24.2974 27.7405 24.436 28.4669 24.2697C28.5667 24.2475 28.6665 24.2253 28.7718 24.2142C30.2745 24.0923 31.7771 23.9814 33.2797 23.8372C33.8009 23.7873 34.3221 23.6819 34.8378 23.5655C34.9986 23.5267 35.1206 23.3548 35.2148 23.2827L35.2093 23.2772ZM28.5778 26.6706C28.5778 26.6706 28.6055 26.6151 28.6221 26.5874C30.5905 26.4155 32.5589 26.2492 34.5273 26.0717C35.3479 25.9996 35.3645 25.9775 35.2647 25.1458C35.2592 25.0903 35.2536 25.0293 35.2536 24.9683C35.2148 24.4305 35.1816 24.4083 34.6382 24.4582C32.4813 24.6745 30.3244 24.8852 28.1675 25.1069C28.051 25.118 27.8348 25.2123 27.8403 25.2511C27.8736 25.6226 27.9013 26.0052 28.0344 26.3434C28.0954 26.4931 28.3893 26.5541 28.5778 26.6595V26.6706ZM29.5814 28.8053C29.5814 28.8053 29.5814 28.7942 29.5814 28.7886C29.8752 28.7886 30.1691 28.8053 30.463 28.7886C31.7937 28.6888 33.1189 28.5669 34.4496 28.467C35.4366 28.395 35.5309 28.2896 35.4255 27.3193C35.3701 26.8258 35.2814 26.7648 34.7657 26.8258C34.2001 26.8923 33.629 26.9589 33.0635 27.0088C31.5997 27.1252 30.1414 27.225 28.6776 27.3415C28.3615 27.3636 28.2007 27.5189 28.2728 27.8738C28.4946 28.955 28.2506 28.833 29.4039 28.8108C29.4649 28.8108 29.5204 28.8108 29.5814 28.8108V28.8053ZM31.4832 30.9566C31.4832 30.9844 31.4832 31.0121 31.4888 31.0454C32.6864 30.9455 33.8785 30.8457 35.0762 30.7459C35.6695 30.696 35.7859 30.5241 35.6307 29.9475C35.5974 29.8366 35.5586 29.7202 35.542 29.6093C35.481 29.2655 35.2592 29.1491 34.9431 29.1712C33.1633 29.2988 31.3779 29.4374 29.598 29.5483C28.3283 29.6259 28.6166 29.9419 28.8051 30.7847C28.8772 31.1008 29.0768 31.1951 29.3929 31.1618C30.0915 31.0842 30.7901 31.0287 31.4888 30.9677L31.4832 30.9566ZM33.7344 33.2023C33.7344 33.2023 33.7344 33.2244 33.7344 33.2411C34.0837 33.2189 34.433 33.1967 34.7879 33.1745C35.8857 33.108 35.8802 33.108 35.7804 32.0268C35.7527 31.6941 35.5863 31.5721 35.2592 31.5943C33.313 31.7163 31.3723 31.8272 29.4261 31.9436C29.099 31.9658 28.9881 32.1266 29.0713 32.4426C29.3319 33.4407 29.3596 33.4684 30.4075 33.4518C30.5683 33.4518 30.7291 33.413 30.8899 33.4019C31.8381 33.3353 32.7862 33.2688 33.7344 33.2023ZM32.7862 35.6863V35.6364C33.4627 35.6364 34.1336 35.6475 34.8101 35.6364C36.0909 35.6142 36.1186 35.5699 35.8913 34.289C35.8414 34.0007 35.6917 33.8787 35.4144 33.8953C34.9487 33.9231 34.4829 33.9563 34.0172 33.9841C32.8084 34.0561 31.5941 34.1449 30.3854 34.1837C29.5758 34.2114 29.5647 34.1892 29.598 34.9766C29.6202 35.5865 29.7255 35.6863 30.3299 35.6863C31.1505 35.6863 31.9712 35.6863 32.7918 35.6863H32.7862ZM33.4294 40.427C33.4294 40.427 33.4294 40.4104 33.4294 40.4049C34.1336 40.4049 34.8378 40.4049 35.542 40.4049C36.3293 40.4049 36.418 40.3217 36.3404 39.5177C36.3293 39.4013 36.3071 39.2848 36.285 39.1684C36.2295 38.8357 36.041 38.7137 35.6972 38.7248C34.3055 38.7747 32.9138 38.8024 31.5276 38.8412C31.2503 38.8468 30.9676 38.808 30.6959 38.8523C30.5683 38.8745 30.3576 39.0464 30.3632 39.1462C30.3743 39.4789 30.4242 39.8227 30.5406 40.1332C30.5961 40.2718 30.8456 40.4049 31.0119 40.4104C31.8159 40.4381 32.6254 40.4215 33.4294 40.4215V40.427ZM33.7122 37.9375V37.9763C34.1669 37.9763 34.6215 37.9652 35.0762 37.9763C36.3737 38.0206 36.0687 37.7711 36.0853 36.895C36.0909 36.5014 35.9135 36.335 35.5253 36.3461C33.8286 36.396 32.1375 36.4293 30.4408 36.5014C30.2689 36.5069 30.0083 36.6843 29.964 36.8341C29.7588 37.4939 30.3576 38.1814 31.0452 38.126C31.9323 38.0594 32.8195 37.9984 33.7067 37.9375H33.7122ZM33.7843 42.7392C33.7843 42.7392 33.7843 42.7392 33.7843 42.7447C34.4885 42.7447 35.1926 42.7281 35.8968 42.7503C36.285 42.7614 36.4402 42.6061 36.4291 42.2402C36.4291 42.096 36.418 41.9463 36.4125 41.8021C36.3681 41.231 36.2794 41.1589 35.7083 41.1645C34.2999 41.1756 32.8916 41.1867 31.4888 41.1645C30.9343 41.1589 30.8068 41.2643 30.901 41.8243C30.9232 41.9408 30.9509 42.0572 30.962 42.1681C30.9953 42.5839 31.2282 42.7447 31.6385 42.7392C32.3537 42.7226 33.0746 42.7392 33.7954 42.7392H33.7843ZM25.1733 27.6021C25.0236 26.5708 24.7297 25.728 24.0699 25.0792C23.9368 24.9461 23.5931 24.9018 23.4101 24.9739C22.8944 25.1679 22.412 25.4563 21.913 25.6891C21.6358 25.8167 21.5914 25.9886 21.7411 26.2492C22.1182 26.8923 22.4786 27.5411 22.8501 28.1898C23.0053 28.4615 23.2604 28.5447 23.4766 28.3672C23.8648 28.0567 24.3083 27.9847 24.7685 27.9015C24.9404 27.8682 25.0791 27.6797 25.1733 27.6076V27.6021ZM54.3774 26.8868C54.5937 27.0254 54.7212 27.1363 54.8709 27.1973C55.2701 27.3636 55.686 27.4856 56.0686 27.6797C56.3513 27.8239 56.5454 27.7906 56.6951 27.53C56.9723 27.0476 57.2662 26.5708 57.488 26.0662C57.549 25.9276 57.4603 25.5838 57.3383 25.5173C56.7894 25.2123 56.2127 24.9683 55.6305 24.7244C55.5363 24.6855 55.32 24.741 55.2867 24.8131C54.9762 25.4674 54.699 26.1383 54.3719 26.8813L54.3774 26.8868ZM27.3468 34.9156C27.2581 34.4387 27.186 34.034 27.114 33.6347C26.9532 32.7587 26.809 31.8771 26.6316 31.001C26.5429 30.574 26.3765 30.5352 26.0106 30.7293C25.7555 30.8624 25.4838 30.9733 25.2066 31.0509C24.7907 31.1673 24.6909 31.3836 24.9127 31.7606C25.4727 32.7199 26.0327 33.6846 26.5928 34.6383C26.6759 34.777 26.7646 34.9156 26.8755 35.0265C26.9587 35.1096 27.114 35.1984 27.2027 35.1706C27.2859 35.1429 27.3191 34.971 27.3468 34.9156ZM52.5809 34.3223C52.8193 34.0894 52.9857 33.9841 53.0744 33.8344C53.6178 32.9028 54.1501 31.9602 54.6768 31.0176C54.821 30.757 54.7933 30.5463 54.4772 30.4243C54.1833 30.3079 53.8895 30.1859 53.6012 30.0528C53.2574 29.892 53.1188 29.953 53.0522 30.319C52.8415 31.4945 52.6308 32.67 52.4312 33.851C52.4146 33.9619 52.5033 34.0894 52.5754 34.3278L52.5809 34.3223Z" fill="#CB9F78"/>
<path d="M33.0366 6.3102C32.8037 6.19376 32.4821 6.12722 32.3657 5.9387C32.1993 5.66701 32.5043 5.15689 32.8702 5.04045C33.3027 4.90183 33.4802 4.6246 33.5079 4.19765C33.5356 3.80398 33.6021 3.44911 34.0513 3.28277C34.1788 3.23841 34.2952 3.01663 34.323 2.85583C34.5281 1.76352 35.3487 1.31439 36.2692 0.95953C37.1009 0.637935 37.9326 0.321885 38.7698 0.0224699C38.8918 -0.0218879 39.0582 0.00583575 39.1857 0.0501936C40.0507 0.32743 40.9156 0.615756 41.7751 0.904082C41.958 0.965074 42.1355 1.03161 42.3185 1.0926C43.0725 1.34212 43.5771 1.82451 43.7324 2.62295C43.7878 2.89464 43.9209 3.07207 44.1981 3.1996C44.37 3.28277 44.5031 3.57664 44.5474 3.79289C44.6251 4.18102 44.736 4.45271 45.2017 4.45826C45.5621 4.45826 45.6342 4.75213 45.6786 5.046C45.7229 5.33987 45.6619 5.57275 45.357 5.68364C45.2738 5.71136 45.1906 5.74463 45.1075 5.77236C44.1427 6.1494 43.7435 6.97556 44.1094 7.95698C44.5031 9.01602 44.93 10.064 45.3902 11.0953C45.479 11.2949 45.7617 11.4945 45.9835 11.5389C47.1202 11.7607 48.2624 11.9326 49.4046 12.1155C49.8094 12.1821 50.2197 12.2153 50.6245 12.2985C51.3675 12.4538 51.6613 13.1136 52.0384 13.6514C52.2103 13.9009 51.9441 14.0118 51.7168 13.9952C51.2178 13.9619 50.7243 13.9065 50.2252 13.8566C49.2771 13.7623 48.3289 13.6681 47.3808 13.5627C45.734 13.3853 44.0872 13.1912 42.4404 13.0138C40.6606 12.8197 38.8807 12.5868 37.0953 12.4815C36.247 12.4316 35.3765 12.609 34.5281 12.7421C33.6576 12.8752 32.8037 13.0859 31.9387 13.2577C30.4416 13.5572 28.9446 13.8566 27.4475 14.1449C27.3033 14.1726 27.1481 14.1283 27.0039 14.1172C27.0483 13.973 27.0704 13.8122 27.1481 13.6847C27.2978 13.4352 27.4586 13.1801 27.6582 12.9694C27.8134 12.8086 28.013 12.6478 28.2237 12.5924C29.3271 12.2985 30.4361 12.0157 31.5506 11.7718C32.1494 11.6387 32.593 11.4003 32.8259 10.7792C33.1918 9.80338 33.5966 8.84414 34.0346 7.89599C34.2952 7.33043 34.0346 6.85358 33.835 6.38782C33.7629 6.22148 33.3693 6.19376 33.1197 6.10504C33.092 6.17158 33.0643 6.23257 33.031 6.29911L33.0366 6.3102ZM43.1446 11.2117C43.4718 11.245 43.5882 11.062 43.4385 10.6961C42.9949 9.59822 42.5458 8.50037 42.0634 7.4136C41.9913 7.24726 41.764 7.08091 41.581 7.05319C40.6717 6.90348 39.7512 6.80922 38.8419 6.67615C38.5259 6.62625 38.3484 6.69278 38.2653 7.03101C38.0213 7.97916 37.7441 8.92176 37.4945 9.86991C37.3892 10.258 37.5444 10.4632 37.9215 10.5186C39.0803 10.685 40.2336 10.868 41.3925 11.0232C41.9747 11.1008 42.5569 11.1507 43.1391 11.2117H43.1446Z" fill="#CB9F78"/>
<path d="M116.274 51.217C115.57 51.217 114.866 51.2226 114.162 51.2115C114.046 51.2115 113.896 51.1505 113.835 51.0673C113.79 51.0008 113.857 50.8511 113.885 50.7457C113.896 50.7069 113.929 50.6681 113.962 50.6404C114.822 50.0526 114.866 49.1877 114.827 48.2562C114.75 46.4985 114.728 44.7408 114.661 42.9776C114.655 42.8001 114.478 42.6283 114.378 42.4564C114.251 42.6005 114.068 42.717 114.001 42.8833C113.103 45.2731 112.216 47.6629 111.329 50.0582C111.262 50.2356 111.24 50.4352 111.14 50.596C111.068 50.718 110.913 50.8622 110.791 50.8733C110.674 50.8788 110.486 50.7457 110.436 50.6238C110.125 49.8974 109.843 49.1599 109.549 48.4225C108.933 46.8866 108.312 45.3452 107.697 43.8093C107.547 43.4433 107.42 43.0663 107.248 42.7114C107.187 42.5894 107.02 42.5229 106.898 42.4286C106.832 42.5617 106.71 42.6892 106.704 42.8223C106.66 43.9645 106.643 45.1067 106.599 46.249C106.571 47.0529 106.549 47.8625 106.455 48.6609C106.366 49.4205 106.682 49.9639 107.203 50.4408C107.32 50.5461 107.458 50.657 107.514 50.7956C107.619 51.0507 107.542 51.2226 107.225 51.2226C106.111 51.2115 104.997 51.2115 103.882 51.1949C103.771 51.1949 103.599 51.1283 103.56 51.0452C103.522 50.9564 103.588 50.8012 103.644 50.6903C103.688 50.6016 103.782 50.5406 103.86 50.474C104.497 49.9362 104.808 49.3152 104.836 48.4225C104.902 46.5373 105.146 44.6576 105.296 42.7724C105.362 41.9241 105.379 41.0757 105.44 40.2274C105.484 39.5842 105.573 38.9465 105.634 38.3034C105.679 37.7877 105.706 37.2831 105.407 36.8118C105.329 36.6843 105.296 36.4348 105.368 36.3294C105.44 36.2296 105.673 36.2185 105.839 36.213C106.25 36.1964 106.66 36.2352 107.065 36.1964C107.42 36.1631 107.669 36.2463 107.802 36.59C108.279 37.8043 108.761 39.0186 109.227 40.2329C109.748 41.5858 110.253 42.9498 110.763 44.3083C110.841 44.5135 110.863 44.7463 110.974 44.9293C111.068 45.0901 111.229 45.2675 111.39 45.3008C111.489 45.323 111.7 45.1012 111.756 44.9515C112.149 43.9257 112.51 42.8833 112.892 41.8575C113.491 40.2496 114.151 38.6693 114.683 37.0392C114.916 36.335 115.254 36.1132 115.942 36.2185C116.225 36.2629 116.524 36.1908 116.818 36.1797C117.151 36.1631 117.317 36.3516 117.2 36.6455C116.768 37.7544 117.067 38.88 117.084 39.9945C117.095 40.8428 117.189 41.6912 117.239 42.5395C117.356 44.5911 117.433 46.6371 117.589 48.6831C117.638 49.3762 117.844 50.0637 118.492 50.5129C118.631 50.6071 118.675 50.84 118.764 51.0063C118.592 51.0618 118.426 51.1671 118.254 51.1727C117.594 51.1949 116.934 51.1782 116.274 51.1782C116.274 51.1782 116.274 51.1782 116.274 51.1838V51.217Z" fill="black"/>
<path d="M278.069 45.5896C278.069 44.2977 278.075 43.0058 278.058 41.7139C278.058 41.5863 277.92 41.4588 277.848 41.3313C277.753 41.4255 277.615 41.4976 277.565 41.6141C276.434 44.1757 275.319 46.7374 274.188 49.2991C273.955 49.8203 273.7 50.3359 273.395 50.8183C273.273 51.0068 273.002 51.2009 272.785 51.212C271.965 51.2564 271.144 51.2342 270.318 51.212C270.163 51.212 270.013 51.0845 269.863 51.0124C269.941 50.8682 269.985 50.6797 270.107 50.5854C270.684 50.1419 270.856 49.5763 270.85 48.8555C270.817 45.2181 270.823 41.5753 270.834 37.9324C270.834 37.5331 270.784 37.1838 270.523 36.8622C270.423 36.7403 270.329 36.4741 270.39 36.3965C270.479 36.28 270.712 36.2246 270.884 36.2246C271.643 36.208 272.408 36.2024 273.168 36.2246C273.351 36.2246 273.595 36.3022 273.695 36.4353C273.761 36.524 273.628 36.768 273.578 36.9399C273.523 37.145 273.417 37.3557 273.417 37.5609C273.406 40.117 273.417 42.6676 273.417 45.2237C273.417 45.4898 273.368 45.7504 273.384 46.0166C273.395 46.1552 273.49 46.2938 273.545 46.4269C273.673 46.3437 273.85 46.2827 273.916 46.1663C274.127 45.7837 274.305 45.3789 274.482 44.9742C275.136 43.4993 275.78 42.0244 276.439 40.5495C276.949 39.3962 277.471 38.2484 277.986 37.1007C277.992 37.0896 277.997 37.0729 278.003 37.0618C278.38 36.2246 278.38 36.2301 279.339 36.2523C279.722 36.2579 280.099 36.208 280.481 36.2135C280.642 36.2135 280.87 36.2523 280.942 36.3577C281.008 36.463 280.931 36.6737 280.886 36.8345C280.792 37.2116 280.592 37.5775 280.587 37.9545C280.559 41.359 280.565 44.7635 280.565 48.1735C280.565 48.5394 280.542 48.9109 280.565 49.2713C280.598 49.8424 280.825 50.3082 281.363 50.6021C281.507 50.6797 281.59 50.8738 281.701 51.0124C281.529 51.09 281.357 51.2342 281.18 51.2342C279.993 51.2508 278.801 51.2453 277.615 51.2342C277.448 51.2342 277.282 51.1122 277.116 51.0457C277.199 50.8738 277.238 50.6464 277.371 50.5466C277.898 50.153 278.108 49.6817 278.069 48.9997C278.003 47.8741 278.053 46.7429 278.053 45.6118C278.053 45.6118 278.053 45.6118 278.058 45.6118L278.069 45.5896Z" fill="black"/>
<path d="M155.992 41.8914C155.992 43.4051 155.992 44.9133 155.997 46.427C155.997 46.549 156.103 46.6709 156.158 46.7985C156.286 46.7208 156.474 46.6709 156.524 46.5601C157.123 45.2182 157.694 43.8709 158.282 42.529C158.936 41.0375 159.601 39.5515 160.256 38.06C160.472 37.5776 160.694 37.1007 160.893 36.6073C161.004 36.3411 161.176 36.2191 161.465 36.2191C162.08 36.2191 162.695 36.197 163.311 36.1914C163.682 36.1914 163.865 36.4298 163.649 36.7237C163.344 37.134 163.389 37.572 163.389 38.0267C163.389 41.6973 163.4 45.3679 163.366 49.0385C163.366 49.6762 163.56 50.1364 164.032 50.5301C164.17 50.6465 164.226 50.8572 164.32 51.0236C164.137 51.0901 163.96 51.2176 163.777 51.2232C162.673 51.2398 161.575 51.2343 160.472 51.2343C160.372 51.2343 160.261 51.2454 160.167 51.2121C160.051 51.1677 159.895 51.1067 159.862 51.0125C159.829 50.9238 159.901 50.7352 159.99 50.6798C160.755 50.1586 160.855 49.4156 160.832 48.5562C160.783 46.3826 160.821 44.2091 160.805 42.0411C160.805 41.847 160.677 41.653 160.611 41.4534C160.472 41.5864 160.283 41.6973 160.206 41.8637C159.64 43.1168 159.108 44.3921 158.542 45.6452C157.805 47.2753 157.034 48.8888 156.308 50.5245C156.053 51.1067 155.659 51.2786 155.06 51.2509C154.389 51.2121 153.707 51.2509 153.037 51.2287C152.859 51.2232 152.687 51.0846 152.51 51.0125C152.621 50.8739 152.709 50.7075 152.848 50.6077C153.386 50.214 153.658 49.7039 153.652 49.033C153.646 45.7616 153.652 42.4847 153.646 39.2133C153.646 38.7863 153.685 38.3539 153.613 37.938C153.547 37.561 153.375 37.195 153.214 36.8401C153.031 36.452 153.131 36.2358 153.552 36.2302C154.373 36.2191 155.193 36.208 156.014 36.208C156.419 36.208 156.596 36.4908 156.358 36.818C156.058 37.2338 156.036 37.6885 156.031 38.1598C156.031 39.4074 156.031 40.6549 156.031 41.9025C156.02 41.9025 156.003 41.9025 155.992 41.9025V41.8914Z" fill="black"/>
<path d="M259.972 46.8481C259.972 47.4968 260 48.14 259.967 48.7832C259.928 49.4874 260.183 50.0363 260.693 50.502C260.832 50.6296 260.904 50.8292 261.009 50.9955C260.815 51.0676 260.621 51.1896 260.422 51.1951C259.174 51.2173 257.926 51.2118 256.679 51.2007C256.535 51.2007 256.396 51.1064 256.252 51.0565C256.313 50.9068 256.324 50.6906 256.435 50.6074C257.211 50.0363 257.333 49.2489 257.328 48.3451C257.3 45.0405 257.322 41.7358 257.317 38.4312C257.317 37.8601 257.294 37.2945 256.939 36.7899C256.729 36.485 256.873 36.2521 257.256 36.241C258.165 36.2188 259.069 36.2022 259.978 36.1855C260.3 36.1855 260.449 36.3962 260.311 36.6402C259.795 37.5385 260.039 38.5032 259.995 39.4459C259.956 40.2387 259.972 41.0316 259.967 41.8245C259.967 42.2848 260.078 42.3956 260.527 42.3956C261.542 42.3956 262.556 42.3956 263.565 42.3956C264.109 42.3956 264.264 42.2737 264.27 41.7303C264.281 40.3774 264.286 39.03 264.247 37.6771C264.236 37.3777 264.015 37.0893 263.915 36.7844C263.865 36.6291 263.815 36.424 263.876 36.302C263.915 36.2188 264.159 36.2188 264.314 36.2188C265.118 36.2133 265.922 36.2077 266.726 36.2188C266.914 36.2188 267.186 36.2576 267.269 36.3796C267.347 36.4961 267.242 36.7456 267.203 36.9396C267.114 37.3777 266.931 37.8157 266.926 38.2537C266.903 41.8245 266.926 45.3898 266.909 48.9606C266.909 49.6204 267.231 50.0917 267.646 50.5464C267.774 50.685 267.857 50.8735 267.957 51.0399C267.757 51.0898 267.563 51.184 267.364 51.1896C266.133 51.2062 264.896 51.2062 263.665 51.1896C263.482 51.1896 263.305 51.0787 263.122 51.0177C263.227 50.868 263.299 50.6906 263.438 50.5797C263.992 50.1416 264.286 49.5705 264.292 48.8719C264.303 47.4469 264.292 46.0219 264.281 44.5969C264.281 44.1145 264.142 44.0092 263.676 44.0147C262.651 44.0258 261.619 44.0258 260.593 44.0147C260.067 44.0147 259.967 44.0979 259.967 44.6024C259.967 45.351 259.967 46.0995 259.967 46.8481C259.967 46.8481 259.972 46.8481 259.978 46.8481H259.972Z" fill="black"/>
<path d="M249.37 36.1963C250.646 36.1963 251.921 36.1963 253.202 36.1963C253.623 36.1963 253.784 36.4181 253.557 36.7785C253.218 37.3163 253.163 37.9096 253.158 38.5084C253.158 41.5636 253.157 44.6132 253.169 47.6683C253.169 48.0454 253.235 48.428 253.274 48.805C253.324 49.2597 253.596 49.4205 254.034 49.4094C254.832 49.3927 254.86 49.4371 254.815 50.2245C254.749 51.3389 254.704 52.4534 254.616 53.5624C254.599 53.7509 254.438 54.0448 254.294 54.0836C253.973 54.1668 253.884 53.884 253.806 53.6012C253.645 53.0245 253.468 52.4479 253.235 51.8934C253.03 51.4166 252.597 51.2336 252.082 51.2336C250.906 51.2336 249.731 51.2336 248.555 51.2336C247.38 51.2336 246.204 51.2336 245.029 51.2391C244.391 51.2391 244.131 51.4221 243.92 52.0376C243.72 52.6198 243.56 53.2131 243.36 53.7953C243.316 53.9172 243.149 54.0891 243.055 54.078C242.916 54.067 242.761 53.9339 242.667 53.8064C242.6 53.7121 242.617 53.5513 242.611 53.4182C242.55 52.4091 242.495 51.3944 242.44 50.3853C242.423 50.0969 242.295 49.7532 242.412 49.548C242.495 49.3983 242.916 49.4593 243.177 49.3983C243.72 49.2652 244.158 48.9547 244.364 48.4391C244.724 47.5297 245.123 46.6204 245.345 45.6722C245.922 43.1882 245.994 40.6487 245.905 38.1037C245.888 37.6712 245.644 37.2498 245.506 36.8284C245.461 36.6842 245.339 36.468 245.395 36.4014C245.484 36.2905 245.689 36.2296 245.844 36.2296C247.019 36.2185 248.195 36.224 249.365 36.224V36.1963H249.37ZM250.618 43.7371C250.618 43.7371 250.607 43.7371 250.601 43.7371C250.601 43.5042 250.601 43.2658 250.601 43.0329C250.596 41.5525 250.601 40.0665 250.579 38.5861C250.574 38.0538 250.424 37.9484 249.908 37.9595C249.365 37.9761 248.822 37.9595 248.278 37.9706C247.541 37.9817 247.491 38.0427 247.48 38.7857C247.463 40.1497 247.491 41.5192 247.391 42.8777C247.308 44.0144 247.136 45.151 246.881 46.26C246.665 47.1915 246.493 48.1674 245.855 48.9492C245.639 49.2098 245.783 49.3262 246.055 49.3262C247.435 49.3318 248.816 49.3373 250.197 49.3318C250.468 49.3318 250.624 49.2042 250.624 48.8937C250.612 47.1749 250.624 45.4615 250.624 43.7427L250.618 43.7371Z" fill="black"/>
<path d="M198.919 43.843C198.919 45.4565 198.936 47.07 198.913 48.6891C198.902 49.4543 199.074 50.1085 199.706 50.5965C199.817 50.6797 199.856 50.8626 199.923 51.0012C199.773 51.0678 199.623 51.1898 199.473 51.1898C198.165 51.2064 196.862 51.2064 195.553 51.1898C195.415 51.1898 195.237 51.101 195.165 50.9957C195.121 50.9347 195.221 50.7074 195.32 50.6353C196.108 50.0254 196.291 49.238 196.274 48.2677C196.224 45.024 196.274 41.7804 196.246 38.5367C196.246 37.9379 196.235 37.3113 195.797 36.7901C195.542 36.4851 195.703 36.2301 196.108 36.2301C198.78 36.2412 201.453 36.2578 204.125 36.2633C204.58 36.2633 205.035 36.2412 205.489 36.2024C205.966 36.1635 206.199 36.402 205.983 36.8178C205.584 37.5941 205.573 38.4202 205.567 39.2575C205.561 42.3958 205.545 45.5397 205.545 48.678C205.545 49.3267 205.695 49.9311 206.227 50.3747C206.338 50.469 206.46 50.5688 206.526 50.6963C206.587 50.8127 206.626 50.9846 206.587 51.0955C206.56 51.1676 206.365 51.2064 206.243 51.2064C204.996 51.2064 203.748 51.2009 202.501 51.1898C202.357 51.1898 202.19 51.2064 202.074 51.1399C201.991 51.0955 201.963 50.9236 201.935 50.8072C201.924 50.7739 201.991 50.7074 202.035 50.6741C202.861 50.0642 202.972 49.2158 202.955 48.2566C202.911 45.0573 202.933 41.858 202.922 38.6587C202.922 37.9822 202.839 37.9323 202.179 37.9434C201.314 37.96 200.449 37.96 199.579 37.9545C198.997 37.9545 198.924 38.0044 198.924 38.6032C198.924 40.3498 198.924 42.0964 198.924 43.843H198.919Z" fill="black"/>
<path d="M219.179 44.1088C219.229 45.3175 218.974 46.7148 218.475 48.0566C217.981 49.3874 217.183 50.5074 215.825 51.084C214.61 51.5997 213.352 51.7272 212.043 51.3557C211.378 51.1672 210.773 50.9011 210.241 50.4797C209.559 49.9474 209.071 49.2376 208.738 48.4503C208.012 46.7314 207.74 44.9183 207.907 43.0664C208.006 41.9463 208.201 40.8207 208.505 39.7451C208.999 38.0373 210.025 36.7343 211.821 36.2186C214.505 35.4479 217.344 36.396 218.447 39.3791C219.024 40.9372 219.24 42.279 219.185 44.0977L219.179 44.1088ZM216.346 43.8814C216.318 43.8814 216.29 43.8814 216.263 43.8759C216.263 43.2771 216.29 42.6727 216.257 42.0739C216.19 40.9095 216.057 39.7451 215.425 38.7415C215.131 38.2813 214.704 37.7323 214.233 37.5882C213.074 37.2388 212.398 37.505 211.732 38.553C211.15 39.4678 210.956 40.4881 210.84 41.5194C210.729 42.5341 210.801 43.5709 210.751 44.5967C210.69 45.7611 210.923 46.8756 211.272 47.9679C211.439 48.4836 211.733 48.9881 212.065 49.4206C212.67 50.208 213.989 50.2856 214.754 49.6535C215.553 48.9937 215.886 48.0733 216.046 47.1196C216.224 46.055 216.257 44.9682 216.351 43.8925L216.346 43.8814Z" fill="black"/>
<path d="M221.891 43.5662C221.891 41.7475 221.913 39.9233 221.874 38.1046C221.869 37.6998 221.658 37.3061 221.547 36.9014C221.497 36.7129 221.409 36.5022 221.464 36.3358C221.492 36.2582 221.791 36.2305 221.963 36.2305C223.283 36.2305 224.608 36.2305 225.928 36.2693C226.942 36.297 227.94 36.4079 228.833 36.979C229.72 37.5446 230.286 38.7145 230.119 39.7736C229.909 41.1209 229.188 42.0857 227.963 42.6845C227.846 42.74 227.774 42.8786 227.685 42.9784C227.802 43.0782 227.902 43.2113 228.035 43.2667C228.833 43.5883 229.571 43.9709 230.047 44.7472C231.356 46.8597 230.369 49.6487 228.245 50.5248C227.098 51.0016 225.905 51.2567 224.652 51.2345C223.549 51.2179 222.451 51.2401 221.348 51.229C221.176 51.229 221.004 51.1181 220.832 51.0571C220.932 50.8963 220.993 50.6856 221.131 50.5747C221.68 50.1367 221.913 49.5988 221.902 48.8891C221.874 47.1148 221.891 45.3349 221.891 43.5606H221.886L221.891 43.5662ZM224.475 46.5104C224.475 46.5104 224.475 46.5104 224.48 46.5104C224.48 47.1979 224.464 47.891 224.48 48.5786C224.503 49.3604 224.885 49.8428 225.567 49.8816C226.26 49.9204 226.92 49.6931 227.292 49.0998C228.484 47.2146 227.868 44.348 225.046 44.0042C224.597 43.9487 224.464 44.0652 224.464 44.5309C224.464 45.1908 224.464 45.8506 224.464 46.5104H224.475ZM224.469 40.2726C224.469 40.9158 224.475 41.5645 224.469 42.2077C224.469 42.5459 224.636 42.74 224.952 42.6679C225.761 42.4849 226.576 42.2354 226.959 41.4037C227.181 40.9213 227.308 40.389 227.403 39.8623C227.58 38.8809 227.075 37.5335 225.822 37.3671C224.935 37.2507 224.458 37.5557 224.475 38.465C224.486 39.0694 224.475 39.6682 224.475 40.2726H224.469Z" fill="black"/>
<path d="M287.162 46.9761C287.162 47.6081 287.168 48.2347 287.162 48.8668C287.157 49.3936 287.323 49.8482 287.689 50.2253C287.833 50.375 288.005 50.497 288.122 50.6633C288.199 50.7686 288.266 50.9572 288.216 51.0514C288.172 51.1457 287.978 51.2067 287.85 51.2067C286.619 51.2122 285.383 51.2067 284.152 51.1956C284.035 51.1956 283.908 51.2067 283.802 51.1734C283.686 51.1346 283.547 51.0681 283.497 50.9738C283.464 50.9128 283.553 50.7576 283.625 50.6744C283.736 50.5413 283.874 50.4304 284.008 50.314C284.357 50.0035 284.529 49.6153 284.529 49.144C284.529 45.3847 284.54 41.6254 284.512 37.8661C284.512 37.5001 284.279 37.1342 284.157 36.7682C284.113 36.6351 284.008 36.4466 284.057 36.3801C284.135 36.2747 284.324 36.2137 284.468 36.2137C285.36 36.2026 286.253 36.2137 287.146 36.2193C287.578 36.2193 287.678 36.4522 287.517 36.8625C287.362 37.2617 287.212 37.6886 287.196 38.11C287.146 39.4297 287.151 40.7493 287.157 42.069C287.157 42.202 287.279 42.4349 287.357 42.4405C287.501 42.4516 287.706 42.3684 287.8 42.2575C288.1 41.8971 288.371 41.5145 288.626 41.1264C289.258 40.1616 289.896 39.1912 290.5 38.2043C290.778 37.7552 291.005 37.2728 291.21 36.7904C291.349 36.4577 291.565 36.3024 291.909 36.2858C292.363 36.2636 292.818 36.2359 293.273 36.247C293.395 36.247 293.6 36.3357 293.622 36.4244C293.655 36.5464 293.6 36.7627 293.506 36.8458C292.436 37.7219 291.876 38.9861 291.083 40.0673C290.567 40.777 290.123 41.5422 289.641 42.2797C289.469 42.5403 289.452 42.7787 289.619 43.0559C290.744 44.9467 291.859 46.843 292.979 48.7393C293.4 49.449 293.971 50.0035 294.687 50.4082C294.775 50.4581 294.892 50.497 294.942 50.5746C295.03 50.7132 295.086 50.874 295.152 51.0293C295.003 51.0958 294.853 51.2122 294.703 51.2178C293.733 51.2289 292.768 51.2067 291.798 51.2178C291.426 51.2178 291.238 51.0681 291.06 50.7298C290.5 49.6486 289.885 48.6007 289.297 47.5361C288.793 46.6267 288.294 45.7119 287.772 44.8081C287.689 44.6639 287.501 44.5807 287.362 44.4698C287.296 44.6306 287.179 44.7914 287.174 44.9578C287.151 45.6342 287.162 46.3051 287.162 46.9816V46.9761Z" fill="black"/>
<path d="M191.711 51.1951C191.007 51.1951 190.303 51.2007 189.598 51.1896C189.465 51.1896 189.249 51.1175 189.232 51.0399C189.205 50.9124 189.266 50.7017 189.366 50.624C190.031 50.0807 190.075 49.4264 189.792 48.6834C189.61 48.2065 189.432 47.7241 189.277 47.2362C189.171 46.9202 188.977 46.8037 188.656 46.8093C187.613 46.8259 186.571 46.837 185.529 46.8259C185.157 46.8259 184.952 46.9867 184.841 47.3138C184.63 47.9404 184.392 48.5559 184.22 49.1935C184.076 49.7424 184.131 50.2692 184.636 50.6629C184.736 50.7405 184.758 50.9068 184.819 51.0288C184.686 51.0898 184.547 51.2007 184.414 51.2007C183.46 51.2173 182.507 51.2173 181.553 51.2007C181.392 51.2007 181.237 51.0565 181.076 50.9845C181.165 50.8458 181.22 50.6684 181.348 50.5797C181.991 50.125 182.435 49.5428 182.695 48.7943C183.682 45.972 184.697 43.1608 185.684 40.333C185.917 39.6732 186.133 38.9912 186.233 38.3036C186.36 37.4553 186.089 37.1282 185.279 36.8066C185.146 36.7511 185.063 36.5792 184.952 36.4628C185.102 36.363 185.24 36.1911 185.396 36.1745C185.889 36.1135 186.388 36.1135 186.882 36.0747C187.186 36.0525 187.497 36.0248 187.796 35.9749C188.146 35.9139 188.351 36.0248 188.467 36.3741C189.155 38.4811 189.865 40.577 190.552 42.684C191.229 44.7577 191.883 46.8425 192.554 48.9163C192.792 49.6537 193.208 50.2525 193.907 50.6351C194.023 50.7017 194.067 50.9068 194.145 51.0454C194.006 51.1009 193.873 51.2062 193.735 51.2118C193.058 51.2284 192.387 51.2173 191.711 51.2173C191.711 51.2173 191.711 51.2118 191.711 51.2062V51.1951ZM187.064 45.2179C187.414 45.2179 187.769 45.2346 188.118 45.2179C188.428 45.2013 188.573 45.0128 188.478 44.7078C188.124 43.5767 187.763 42.4456 187.392 41.32C187.358 41.2146 187.22 41.0816 187.137 41.0816C187.042 41.0816 186.915 41.2146 186.876 41.32C186.732 41.6859 186.626 42.0685 186.499 42.4456C186.255 43.1497 185.994 43.8539 185.75 44.5581C185.59 45.0183 185.712 45.1958 186.188 45.2235C186.482 45.2401 186.776 45.2235 187.07 45.2235L187.064 45.2179Z" fill="black"/>
<path d="M146.166 51.2284C144.963 51.2284 143.76 51.234 142.551 51.2173C142.368 51.2173 142.191 51.0954 142.008 51.0344C142.102 50.8847 142.174 50.7128 142.291 50.5852C142.74 50.1139 143.045 49.5872 143.045 48.9107C143.039 45.5506 143.028 42.185 143.039 38.8249C143.039 38.0708 143.067 37.3389 142.573 36.6846C142.374 36.4185 142.584 36.1856 142.984 36.1967C143.51 36.2078 144.037 36.2466 144.569 36.2466C146.305 36.2466 148.035 36.2299 149.765 36.2188C150.203 36.2188 150.364 36.363 150.391 36.7733C150.441 37.5052 150.502 38.2316 150.541 38.9635C150.547 39.0966 150.447 39.2407 150.397 39.3793C150.247 39.3128 150.025 39.2906 149.959 39.1797C149.094 37.6605 147.608 37.5884 146.122 37.5052C145.817 37.4886 145.667 37.6716 145.667 37.9765C145.667 39.3738 145.662 40.7655 145.656 42.1628C145.656 42.5232 145.839 42.7284 146.2 42.6951C146.987 42.6286 147.774 42.5565 148.556 42.4456C149.005 42.3846 149.088 42.4179 149.088 42.8614C149.088 43.1997 149.088 43.5379 149.094 43.8761C149.094 44.3363 148.983 44.3696 148.534 44.3086C147.708 44.2033 146.876 44.1589 146.044 44.1423C145.922 44.1423 145.684 44.4195 145.684 44.5748C145.656 46.1606 145.662 47.7463 145.656 49.3321C145.656 49.748 145.839 49.9753 146.266 49.9531C147.741 49.8644 149.116 49.5595 150.014 48.2121C150.081 48.1068 150.236 48.0624 150.353 47.9903C150.43 48.1234 150.58 48.2509 150.574 48.384C150.558 49.2046 150.525 50.0252 150.469 50.8458C150.447 51.2063 150.17 51.2617 149.859 51.2617C148.628 51.2562 147.392 51.2617 146.161 51.2617C146.161 51.2562 146.161 51.2506 146.161 51.2451L146.166 51.2284Z" fill="black"/>
<path d="M236.65 51.229C235.519 51.229 234.388 51.229 233.257 51.229C233.096 51.229 232.929 51.2401 232.774 51.2013C232.647 51.168 232.491 51.0848 232.436 50.9795C232.403 50.9129 232.508 50.7466 232.586 50.6523C232.697 50.5193 232.891 50.4306 232.957 50.2864C233.146 49.8816 233.423 49.4602 233.428 49.0444C233.456 45.5235 233.44 41.997 233.428 38.4761C233.428 37.844 233.44 37.2175 232.957 36.6963C232.752 36.4745 232.885 36.2471 233.207 36.225C233.484 36.2028 233.761 36.2471 234.044 36.2416C236.084 36.236 238.125 36.225 240.165 36.2139C240.587 36.2139 240.775 36.3747 240.797 36.7683C240.842 37.5002 240.892 38.2266 240.919 38.9585C240.919 39.0916 240.825 39.2357 240.775 39.3688C240.626 39.3023 240.404 39.2801 240.337 39.1692C239.711 38.0991 238.702 37.7109 237.548 37.5779C237.227 37.5391 236.905 37.5058 236.583 37.4836C236.256 37.467 236.101 37.6278 236.101 37.9605C236.101 39.3688 236.101 40.7772 236.101 42.1911C236.101 42.5459 236.284 42.7123 236.622 42.6846C237.393 42.6236 238.169 42.5626 238.934 42.4517C239.433 42.3796 239.511 42.424 239.478 42.923C239.456 43.2446 239.472 43.5662 239.494 43.8822C239.522 44.287 239.406 44.3646 239.018 44.3203C238.208 44.2316 237.387 44.1761 236.572 44.1262C236.223 44.104 236.09 44.2981 236.09 44.6474C236.107 46.1611 236.101 47.6693 236.101 49.183C236.101 49.8761 236.151 49.9593 236.855 49.9204C237.997 49.8484 239.095 49.6155 239.96 48.7727C240.104 48.6341 240.204 48.4455 240.348 48.3014C240.459 48.1849 240.603 48.0962 240.731 47.9909C240.82 48.1572 240.98 48.3291 240.98 48.4954C240.98 49.0499 240.919 49.6044 240.892 50.1589C240.886 50.303 240.892 50.4527 240.903 50.5969C240.964 51.1126 240.875 51.229 240.348 51.229C239.117 51.2345 237.881 51.229 236.65 51.229Z" fill="black"/>
<path d="M135.437 51.7443C134.383 51.7942 133.418 51.4726 132.459 51.1455C131.855 50.9403 131.716 50.6409 131.799 50.0088C131.883 49.3712 131.916 48.7224 132.027 48.0903C132.06 47.8852 132.248 47.5858 132.404 47.5525C132.742 47.486 132.731 47.8408 132.781 48.0737C133.108 49.6928 134.439 50.5688 136.008 50.1474C136.878 49.909 137.483 49.3046 137.627 48.4119C137.749 47.6523 137.765 46.8594 137.704 46.0887C137.599 44.6914 136.329 43.832 134.893 44.2146C133.984 44.4585 134.012 44.1868 134.078 43.5159C134.161 42.662 134.128 42.6676 134.993 42.6898C136.285 42.723 136.978 42.1187 137.25 40.8655C137.388 40.2224 137.355 39.5237 137.272 38.8639C137.156 37.9656 136.584 37.389 135.853 37.2615C134.927 37.0951 133.978 37.5054 133.546 38.2817C133.363 38.6144 133.263 38.9859 133.08 39.3186C133.003 39.4627 132.825 39.557 132.692 39.6734C132.57 39.5293 132.376 39.3962 132.348 39.2354C132.243 38.6144 132.221 37.9823 132.121 37.3613C132.043 36.8789 132.221 36.5739 132.653 36.4464C133.269 36.2634 133.89 36.0527 134.527 35.9862C135.708 35.8642 136.912 35.8198 138.021 36.3799C139.462 37.1062 140.116 38.2872 140.006 39.7899C139.9 41.1927 139.202 42.1686 138.026 42.8672C137.915 42.9337 137.815 43.0779 137.799 43.1999C137.788 43.2664 137.943 43.4106 138.048 43.4383C139.623 43.9207 140.676 45.8392 140.61 47.2863C140.554 48.423 140.189 49.4322 139.434 50.2528C138.847 50.8904 138.082 51.3285 137.205 51.5003C136.618 51.6168 136.019 51.6722 135.431 51.7499L135.437 51.7443Z" fill="black"/>
<path d="M175.537 51.6942C174.65 51.7718 173.63 51.4225 172.615 51.0787C172.122 50.9124 172.033 50.7128 172.099 50.2082C172.194 49.4652 172.255 48.7222 172.366 47.9792C172.388 47.8129 172.521 47.5689 172.648 47.5356C172.92 47.4635 172.976 47.7186 173.053 47.9404C173.214 48.3784 173.358 48.8386 173.613 49.2157C174.229 50.1417 175.149 50.4411 176.275 50.1638C177.234 49.931 177.933 49.1824 178.027 48.14C178.099 47.3748 178.149 46.5708 178.005 45.8223C177.777 44.6302 176.774 43.9815 175.31 44.1866C175.193 44.2032 175.083 44.2531 174.966 44.2642C174.866 44.2753 174.728 44.292 174.672 44.2421C174.262 43.8706 174.528 43.3882 174.523 42.9612C174.523 42.867 174.85 42.6674 175.01 42.6784C176.846 42.8281 177.672 41.758 177.65 40.0281C177.65 39.6011 177.655 39.1686 177.583 38.7583C177.373 37.5773 176.286 36.9563 175.132 37.3111C174.34 37.5607 173.863 38.1151 173.563 38.8581C173.486 39.0466 173.458 39.2684 173.347 39.4292C173.264 39.5512 173.059 39.6898 172.942 39.6621C172.815 39.6344 172.698 39.4403 172.637 39.2962C172.587 39.1853 172.637 39.0356 172.626 38.9025C172.582 38.4367 172.571 37.9654 172.477 37.5108C172.332 36.8177 172.41 36.7012 173.053 36.4351C174.373 35.8861 175.737 35.7974 177.117 36.0026C178.603 36.2244 179.746 36.9785 180.217 38.4589C180.716 40.0281 180.206 41.3422 179.003 42.4123C178.847 42.5509 178.676 42.6618 178.52 42.7949C178.143 43.1109 178.149 43.2884 178.592 43.4935C179.468 43.8983 180.045 44.5692 180.522 45.4065C181.243 46.6651 181.004 49.0493 179.784 50.2359C178.659 51.3338 177.284 51.6942 175.548 51.6886L175.537 51.6942Z" fill="black"/>
<path d="M122.146 51.5613C121.042 51.4892 121.031 51.4781 121.197 50.408C121.236 50.164 121.314 49.9145 121.314 49.6705C121.314 49.2325 121.48 49.1383 121.913 49.2048C122.783 49.3434 123.493 49.0107 124.014 48.2955C124.247 47.9739 124.286 47.6412 124.119 47.2586C123.066 44.8023 122.029 42.346 120.987 39.8841C120.704 39.2243 120.466 38.5423 120.127 37.9102C119.911 37.511 119.545 37.1949 119.251 36.8345C119.146 36.7014 119.057 36.5517 118.963 36.4075C119.129 36.3355 119.296 36.2079 119.456 36.2079C120.072 36.2135 120.687 36.28 121.303 36.2911C121.741 36.2967 122.184 36.2578 122.617 36.219C123.155 36.1691 123.304 36.3244 123.166 36.8345C122.972 37.5609 123.199 38.2429 123.449 38.8916C124.025 40.3998 124.652 41.8857 125.256 43.3828C125.356 43.6379 125.506 43.6656 125.678 43.4715C125.783 43.3551 125.883 43.2109 125.933 43.0668C126.498 41.4034 127.053 39.7344 127.613 38.071C127.762 37.6274 127.834 37.2115 127.524 36.779C127.291 36.4575 127.469 36.2246 127.868 36.219C128.688 36.2079 129.503 36.1858 130.324 36.1913C130.457 36.1913 130.662 36.2911 130.707 36.3965C130.745 36.4907 130.64 36.7125 130.535 36.779C130.002 37.1284 129.692 37.6218 129.47 38.1985C128.661 40.3055 127.862 42.418 127.036 44.525C126.421 46.0942 125.827 47.6744 125.14 49.2103C124.718 50.1474 124.147 51.029 123.072 51.3728C122.772 51.467 122.451 51.5003 122.14 51.5613H122.146Z" fill="black"/>
<path d="M157.96 34.7774C157.589 34.6665 156.857 34.4669 156.142 34.2174C155.831 34.1121 155.776 33.6907 155.948 33.3358C156.119 32.9865 156.286 32.6261 156.441 32.2657C156.602 31.8886 156.768 31.8276 157.118 32.0494C157.661 32.3987 158.249 32.5762 158.903 32.5595C159.385 32.5484 159.879 32.6094 160.35 32.5263C160.827 32.4376 161.276 32.1991 161.747 32.055C161.93 31.9995 162.141 32.0162 162.341 31.9995C162.352 32.2213 162.452 32.5096 162.352 32.6483C162.091 33.0087 161.753 33.3303 161.415 33.6241C160.544 34.3893 159.507 34.7497 157.971 34.7663L157.96 34.7774Z" fill="black"/>
<path d="M168.59 45.0797C167.62 45.0852 167.037 44.4753 167.043 43.4606C167.043 42.7342 167.797 42.0301 168.557 42.0411C169.316 42.0522 170.17 42.9061 170.154 43.6491C170.137 44.4309 169.427 45.0797 168.596 45.0852L168.59 45.0797Z" fill="black"/>
<path d="M136.472 27.3471C136.472 27.7408 136.472 28.14 136.472 28.5337C136.472 28.9107 136.295 29.0937 135.907 29.0992C134.803 29.1214 134.781 29.1048 134.787 27.9792C134.787 27.3748 134.803 26.776 134.781 26.1716C134.776 26.0053 134.687 25.7502 134.565 25.7003C134.437 25.6449 134.193 25.7391 134.06 25.8445C133.911 25.9609 133.772 26.1494 133.728 26.3324C133.595 26.8536 133.5 27.3859 133.417 27.9238C133.262 28.9274 132.813 29.0992 131.953 29.3155C131.826 29.3488 131.632 29.1547 131.493 29.0438C131.438 28.9994 131.465 28.8664 131.421 28.7943C131.149 28.3618 131.255 28.0901 131.72 27.8739C131.887 27.7962 132.014 27.5467 132.07 27.3526C132.181 26.9867 132.186 26.593 132.308 26.2382C132.419 25.9166 132.591 25.6005 132.802 25.3344C132.99 25.0959 133.057 24.9296 132.835 24.6912C132.486 24.3141 132.264 23.8983 132.33 23.3438C132.375 22.9779 132.192 22.6729 131.82 22.4955C131.388 22.2903 131.31 22.002 131.526 21.6083C131.765 21.1758 132.098 21.0705 132.513 21.2701C133.367 21.6859 133.578 22.4733 133.661 23.305C133.7 23.6987 133.733 24.0813 134.105 24.2975C134.254 24.3862 134.482 24.4472 134.62 24.3918C134.72 24.3529 134.787 24.1034 134.787 23.9426C134.803 23.2994 134.787 22.6507 134.798 22.0075C134.803 21.503 134.892 21.442 135.402 21.4309C136.672 21.4032 136.456 21.4863 136.456 22.4677C136.456 22.9501 136.428 23.4381 136.445 23.9205C136.45 24.0868 136.555 24.3751 136.644 24.3862C136.849 24.4139 137.193 24.364 137.26 24.2365C137.454 23.8428 137.609 23.4048 137.659 22.9668C137.742 22.2016 138.047 21.6083 138.751 21.2867C138.951 21.198 139.322 21.1592 139.433 21.2756C139.644 21.503 139.755 21.8467 139.849 22.1572C139.871 22.2238 139.638 22.4123 139.494 22.4733C139.134 22.6174 138.967 22.867 138.94 23.2385C138.895 23.8151 138.834 24.3751 138.374 24.8132C138.308 24.8797 138.319 25.1514 138.391 25.2235C138.779 25.5894 138.94 26.033 138.984 26.5542C139.006 26.8259 139.078 27.1142 139.2 27.3582C139.317 27.5911 139.489 27.8406 139.705 27.9626C140.015 28.14 140.099 28.3174 139.954 28.6279C139.893 28.761 139.904 28.9551 139.81 29.0382C139.655 29.1713 139.394 29.3543 139.25 29.3099C138.613 29.1048 137.947 28.8941 137.897 28.0236C137.87 27.5911 137.786 27.1475 137.648 26.7372C137.531 26.3934 137.326 26.0663 137.104 25.7779C137.032 25.6781 136.766 25.6504 136.628 25.7003C136.533 25.7391 136.472 25.9609 136.461 26.1051C136.439 26.5154 136.456 26.9257 136.456 27.336C136.467 27.336 136.478 27.336 136.489 27.336L136.472 27.3471Z" fill="black"/>
<path d="M207.212 24.624C207.212 25.5056 207.218 26.3872 207.212 27.2688C207.212 27.5627 207.295 27.7512 207.567 27.912C207.728 28.0063 207.866 28.2614 207.878 28.4554C207.916 29.082 207.894 29.7141 207.894 30.3462C207.894 30.8397 207.789 30.9505 207.262 30.9727C206.641 31.0004 206.469 30.8896 206.447 30.3905C206.436 30.1299 206.453 29.8638 206.458 29.5976C206.458 29.2428 206.308 29.0542 205.926 29.0598C205.222 29.0709 204.517 29.0653 203.813 29.0598C203.447 29.0598 203.264 29.2372 203.281 29.5976C203.292 29.8471 203.32 30.0967 203.331 30.3462C203.347 30.7398 203.159 30.9561 202.76 30.9616C202.582 30.9616 202.405 30.9672 202.233 30.9561C201.972 30.9395 201.834 30.8064 201.828 30.5347C201.828 29.8028 201.806 29.0653 201.828 28.3334C201.828 28.1893 201.95 27.9952 202.072 27.9065C202.477 27.6182 202.643 27.2079 202.765 26.7643C203.043 25.7829 203.076 24.7682 203.081 23.759C203.081 23.1602 203.07 22.5558 203.054 21.9514C203.043 21.5578 203.192 21.4025 203.603 21.4081C204.645 21.4247 205.687 21.4192 206.73 21.397C207.129 21.3859 207.245 21.5633 207.24 21.9293C207.229 22.8275 207.24 23.7202 207.24 24.6185C207.234 24.6185 207.223 24.6185 207.218 24.6185L207.212 24.624ZM205.737 25.245C205.737 25.245 205.721 25.245 205.715 25.245C205.715 24.5408 205.715 23.8367 205.715 23.1325C205.715 22.6834 205.571 22.5558 205.089 22.5669C204.634 22.578 204.534 22.6944 204.545 23.1547C204.573 24.6074 204.578 26.0545 203.991 27.4296C203.869 27.718 203.991 27.8899 204.296 27.9065C204.589 27.9231 204.883 27.9231 205.177 27.9176C205.576 27.912 205.754 27.7069 205.743 27.3021C205.726 26.6146 205.743 25.927 205.743 25.2339L205.737 25.245Z" fill="black"/>
<path d="M165.128 24.8518C165.05 24.9793 164.956 25.1013 164.895 25.2399C164.374 26.3988 163.869 27.5687 163.32 28.722C163.237 28.8939 162.965 29.088 162.777 29.088C161.54 29.0935 161.624 29.1989 161.64 28.1065C161.668 26.0384 161.651 23.9646 161.64 21.8964C161.64 21.5638 161.735 21.3863 162.084 21.4141C162.156 21.4141 162.234 21.4251 162.306 21.4141C163.065 21.3364 163.287 21.281 163.259 22.4066C163.232 23.4212 163.215 24.4304 163.193 25.4451C163.193 25.5393 163.221 25.6391 163.254 25.8886C163.442 25.6613 163.581 25.5449 163.647 25.3952C164.13 24.3417 164.612 23.2882 165.061 22.218C165.377 21.464 165.998 21.1424 166.741 21.464C166.886 21.5249 166.996 21.8355 166.996 22.0351C167.013 23.9868 166.996 25.9386 166.996 27.8958C166.996 28.101 166.996 28.3062 167.013 28.5113C167.052 28.9327 166.841 29.1046 166.448 29.1046C166.42 29.1046 166.387 29.1046 166.359 29.1046C165.394 29.1268 165.344 29.0713 165.35 28.101C165.35 27.1917 165.355 26.2823 165.35 25.373C165.35 25.2066 165.3 25.0459 165.278 24.8795C165.228 24.8684 165.178 24.8629 165.128 24.8518Z" fill="black"/>
<path d="M213.435 24.8132C213.313 24.9851 213.163 25.1404 213.08 25.3289C212.536 26.4988 212.026 27.6854 211.466 28.8443C211.244 29.2989 210.751 29.0494 210.391 29.0716C210.219 29.0827 210.025 28.8609 209.864 28.7223C209.819 28.6835 209.836 28.5559 209.842 28.4672C209.847 26.2826 209.858 24.098 209.858 21.9133C209.858 21.5917 209.98 21.4531 210.285 21.4309C210.313 21.4309 210.346 21.4309 210.374 21.4309C211.427 21.3977 211.461 21.4309 211.439 22.49C211.422 23.3827 211.4 24.2754 211.4 25.1736C211.4 25.3123 211.516 25.4453 211.577 25.5839C211.688 25.4897 211.849 25.4176 211.904 25.2956C212.42 24.1922 212.919 23.0833 213.418 21.9743C213.634 21.4919 214.61 21.187 215.015 21.5252C215.137 21.6306 215.181 21.8856 215.181 22.0741C215.192 24.0092 215.187 25.9444 215.187 27.885C215.187 28.0292 215.187 28.1789 215.187 28.323C215.203 28.9662 215.087 29.0827 214.427 29.0993C213.712 29.1104 213.629 29.0217 213.634 28.3009C213.634 27.2862 213.634 26.277 213.629 25.2624C213.629 25.1237 213.59 24.9907 213.568 24.8576C213.529 24.8465 213.49 24.8354 213.446 24.8243L213.435 24.8132Z" fill="black"/>
<path d="M157.666 24.7856C157.555 24.9409 157.416 25.085 157.339 25.2514C156.779 26.4435 156.241 27.6467 155.675 28.8388C155.62 28.9553 155.442 29.0163 155.309 29.0883C155.265 29.1105 155.193 29.0883 155.137 29.0883C154.084 29.0773 154.084 29.0329 154.095 27.9849C154.117 26.0055 154.095 24.0205 154.084 22.041C154.084 21.5087 154.139 21.42 154.666 21.42C155.324 21.42 155.649 21.7508 155.642 22.4125C155.631 23.3218 155.609 24.2312 155.614 25.1405C155.614 25.2902 155.72 25.4399 155.775 25.5952C155.892 25.4787 156.047 25.3845 156.113 25.2458C156.635 24.1314 157.139 23.0058 157.649 21.8857C157.843 21.4533 158.941 21.2037 159.279 21.5364C159.357 21.614 159.385 21.7748 159.385 21.8968C159.396 24.0815 159.401 26.2716 159.401 28.4562C159.401 28.922 159.274 29.0551 158.808 29.0828C158.675 29.0939 158.542 29.0828 158.414 29.0828C158.004 29.0939 157.838 28.8832 157.843 28.484C157.854 27.4416 157.843 26.3992 157.843 25.3567C157.843 25.1738 157.81 24.9963 157.793 24.8134C157.755 24.7967 157.71 24.7856 157.671 24.769L157.666 24.7856Z" fill="black"/>
<path d="M260.393 24.8514C260.299 24.99 260.182 25.1176 260.116 25.2673C259.578 26.4206 259.051 27.5794 258.519 28.7383C258.369 29.0599 257.754 29.2151 257.255 29.0654C256.878 28.949 256.922 28.6662 256.933 28.3502C256.967 27.2079 256.972 26.0602 256.972 24.918C256.972 23.9033 256.955 22.8941 256.933 21.8795C256.928 21.5856 257.027 21.4303 257.327 21.4248C257.488 21.4248 257.649 21.4082 257.809 21.4026C258.197 21.386 258.386 21.5745 258.38 21.9571C258.369 22.9829 258.347 24.0086 258.331 25.0399C258.331 25.1009 258.308 25.1619 258.331 25.2118C258.375 25.3394 258.441 25.4558 258.497 25.5778C258.619 25.4946 258.796 25.4336 258.857 25.3172C259.074 24.9013 259.251 24.4633 259.439 24.0364C259.778 23.2712 260.11 22.506 260.465 21.7519C260.526 21.6188 260.709 21.5357 260.831 21.4359C260.842 21.4303 260.859 21.4359 260.876 21.4303C261.984 21.2751 262.129 21.4082 262.134 22.5116C262.134 24.4799 262.145 26.4428 262.151 28.4111C262.151 28.9656 261.984 29.1153 261.347 29.1153C260.776 29.1153 260.67 28.9933 260.67 28.4056C260.676 27.4075 260.676 26.4095 260.67 25.4114C260.67 25.234 260.598 25.0621 260.565 24.8847C260.51 24.8792 260.454 24.8681 260.404 24.8625L260.393 24.8514Z" fill="black"/>
<path d="M244.567 25.2728C244.567 26.3318 244.567 27.3853 244.567 28.4443C244.567 29.0543 244.506 29.1097 243.918 29.0875C242.937 29.0543 242.948 29.0543 242.97 28.0618C242.981 27.4629 242.97 26.8586 242.97 26.2542C242.97 25.855 242.787 25.6553 242.377 25.6664C242.055 25.6775 241.728 25.6775 241.406 25.6553C241.013 25.6332 240.885 25.8272 240.891 26.1876C240.902 26.9528 240.88 27.7124 240.896 28.4776C240.907 28.8879 240.735 29.082 240.331 29.082C240.242 29.082 240.153 29.0875 240.065 29.0875C239.266 29.0875 239.194 28.9545 239.216 28.1505C239.261 26.6534 239.244 25.1563 239.244 23.6592C239.244 23.0992 239.233 22.5448 239.2 21.9847C239.177 21.6132 239.316 21.4247 239.687 21.4136C240.952 21.3859 240.896 21.3249 240.896 22.4949C240.896 22.9772 240.891 23.4652 240.885 23.9476C240.885 24.2913 241.029 24.4688 241.39 24.4521C241.695 24.4355 242.005 24.4466 242.316 24.4466C242.842 24.4466 242.97 24.3246 242.97 23.8034C242.97 23.1713 242.97 22.5392 242.953 21.9071C242.942 21.5633 243.086 21.4136 243.419 21.4247C244.495 21.4524 244.589 21.0809 244.567 22.5281C244.55 23.4375 244.567 24.3468 244.567 25.2617V25.2728Z" fill="black"/>
<path d="M236.85 25.2511C236.85 26.2935 236.85 27.3359 236.85 28.3728C236.85 28.9661 236.767 29.0659 236.179 29.0825C236.09 29.0825 236.002 29.0881 235.913 29.0936C235.22 29.1102 235.137 29.0215 235.142 28.3118C235.148 27.6076 235.148 26.9034 235.148 26.1993C235.148 25.7335 235.037 25.6337 234.566 25.6503C234.261 25.6614 233.95 25.667 233.64 25.6725C233.274 25.6781 233.113 25.8666 233.119 26.227C233.135 26.9145 233.168 27.6076 233.135 28.2952C233.124 28.5447 233.002 28.9605 232.863 28.9938C232.498 29.0714 232.093 29.0104 231.716 28.9328C231.633 28.9162 231.56 28.6057 231.56 28.4282C231.56 26.4931 231.572 24.558 231.577 22.6174C231.577 22.3956 231.572 22.1738 231.544 21.9575C231.494 21.575 231.66 21.4197 232.032 21.4142C233.324 21.3809 233.18 21.4918 233.135 22.451C233.113 22.9168 233.113 23.3881 233.107 23.8594C233.096 24.2697 233.274 24.4471 233.69 24.4527C233.983 24.4582 234.272 24.4638 234.566 24.4748C234.987 24.4859 235.148 24.3307 235.148 23.8982C235.148 23.255 235.148 22.6063 235.131 21.9631C235.12 21.5971 235.248 21.4308 235.63 21.4197C236.44 21.3901 236.835 21.7875 236.817 22.6118C236.795 23.4934 236.817 24.3695 236.817 25.2511C236.828 25.2511 236.833 25.2511 236.845 25.2511H236.85Z" fill="black"/>
<path d="M181.542 25.2119C181.542 24.1251 181.547 23.0384 181.542 21.9516C181.542 21.5967 181.686 21.4304 182.03 21.4304C183.216 21.4248 184.408 21.4137 185.595 21.4082C185.916 21.4082 186.044 21.5745 185.972 21.8961C185.855 22.3841 185.573 22.617 185.057 22.6114C184.63 22.6114 184.203 22.6059 183.782 22.5781C183.41 22.5504 183.227 22.6946 183.238 23.0772C183.244 23.3544 183.238 23.6372 183.233 23.9144C183.227 24.297 183.394 24.4633 183.793 24.4744C184.259 24.4855 184.73 24.5133 185.179 24.6186C185.462 24.6851 185.772 24.8515 185.95 25.0677C187.125 26.4816 186.676 28.4001 185.162 28.9379C184.918 29.0267 184.647 29.0433 184.386 29.0544C183.682 29.0766 182.978 29.0821 182.274 29.0877C181.658 29.0932 181.531 28.9379 181.542 28.3336C181.558 27.2912 181.542 26.2488 181.542 25.2063V25.2119ZM183.244 26.6979C183.244 26.6979 183.266 26.6979 183.272 26.6979C183.255 26.9141 183.194 27.1415 183.233 27.3522C183.261 27.5296 183.427 27.8401 183.488 27.829C183.904 27.7569 184.358 27.6904 184.708 27.4797C185.079 27.2579 185.101 26.8032 184.968 26.404C184.824 25.9604 184.43 25.7553 184.009 25.6499C183.405 25.4947 183.244 25.6333 183.238 26.2598C183.238 26.404 183.238 26.5537 183.238 26.6979H183.244Z" fill="black"/>
<path d="M176.728 21.1752C178.17 21.1142 179.173 22.2398 179.434 23.5428C179.656 24.6629 179.617 25.7829 179.456 26.9085C179.279 28.156 178.197 29.2705 176.966 29.3482C176.024 29.4036 174.915 28.8159 174.432 27.7568C173.895 26.5758 174.094 25.3449 174.078 24.1195C174.066 23.4486 174.366 22.8885 174.66 22.3452C175.092 21.5523 175.83 21.1919 176.728 21.1808V21.1752ZM178.025 25.295C177.992 24.9345 177.975 24.6462 177.942 24.3524C177.909 24.064 177.876 23.7702 177.826 23.4818C177.732 22.9218 177.354 22.5226 176.878 22.4616C176.356 22.3951 176.118 22.5226 175.868 23.2157C175.702 23.687 175.641 24.2082 175.602 24.7128C175.525 25.6221 175.564 26.537 175.902 27.3964C176.157 28.0507 176.883 28.2891 177.316 27.8622C177.543 27.6404 177.743 27.3132 177.809 27.0027C177.937 26.4205 177.964 25.8217 178.025 25.2894V25.295Z" fill="black"/>
<path d="M105.173 25.2678C105.173 24.1977 105.173 23.1276 105.173 22.0519C105.173 21.5584 105.273 21.4475 105.75 21.4309C106.489 21.3976 106.861 21.7469 106.864 22.4788C106.864 22.9058 106.864 23.3272 106.859 23.7541C106.859 24.0369 106.742 24.3751 107.153 24.4749C107.419 24.5359 107.934 24.1811 108.007 23.8928C108.134 23.3826 108.245 22.867 108.35 22.3458C108.461 21.7913 109.016 21.2368 109.57 21.1703C109.886 21.1315 110.136 21.2479 110.224 21.5584C110.313 21.88 110.441 22.2903 110.047 22.4567C109.559 22.6674 109.47 23.05 109.437 23.4769C109.398 23.9704 109.315 24.425 108.927 24.7965C108.844 24.8742 108.872 25.2235 108.971 25.3122C109.481 25.7669 109.565 26.3768 109.609 26.9812C109.648 27.4802 109.809 27.824 110.291 27.9959C110.596 28.1067 110.662 28.3064 110.474 28.5781C110.446 28.6169 110.43 28.6557 110.402 28.6889C110.241 28.9107 110.064 29.3377 109.931 29.3266C109.465 29.2822 108.949 29.1713 108.7 28.6889C108.544 28.384 108.45 28.0402 108.361 27.7075C108.223 27.1863 108.129 26.654 107.984 26.1328C107.912 25.8611 107.363 25.5562 107.119 25.6726C106.986 25.7391 106.859 25.9554 106.853 26.1051C106.837 26.8536 106.859 27.6022 106.881 28.3507C106.903 28.9773 106.787 29.0937 106.155 29.0882C105.162 29.0826 105.123 29.0715 105.168 28.0458C105.206 27.1253 105.173 26.1994 105.173 25.2734H105.162L105.173 25.2678Z" fill="black"/>
<path d="M123.454 25.2567C123.454 26.2991 123.454 27.3415 123.454 28.384C123.454 28.9939 123.321 29.1048 122.633 29.0992C121.979 29.0992 121.852 28.9717 121.852 28.384C121.857 26.6984 121.857 25.0072 121.874 23.3216C121.874 22.8836 121.635 22.8115 121.286 22.8115C120.92 22.8115 120.715 22.9168 120.704 23.3382C120.665 24.6413 120.654 25.9498 120.515 27.2417C120.427 28.0901 120.005 28.8054 119.096 29.077C119.052 29.0881 119.013 29.1048 118.968 29.1214C118.065 29.4541 117.843 29.3266 117.749 28.3451C117.737 28.2176 117.915 27.9736 118.037 27.9459C118.785 27.7907 119.107 27.275 119.146 26.593C119.218 25.3621 119.235 24.1311 119.262 22.9002C119.268 22.5786 119.262 22.257 119.24 21.9299C119.223 21.6083 119.345 21.4253 119.689 21.4253C120.776 21.4253 121.863 21.4198 122.944 21.4253C123.382 21.4253 123.46 21.7192 123.454 22.0851C123.443 23.1386 123.454 24.1977 123.454 25.2567C123.454 25.2567 123.449 25.2567 123.443 25.2567H123.454Z" fill="black"/>
<path d="M147.269 25.2344C147.269 24.1476 147.28 23.0609 147.263 21.9796C147.258 21.5582 147.413 21.4085 147.834 21.4196C148.988 21.4363 148.938 21.3642 148.916 22.5397C148.91 22.9333 148.916 23.3326 148.899 23.7262C148.888 24.0312 148.777 24.375 149.221 24.4692C149.531 24.5358 150.03 24.2142 150.108 23.887C150.224 23.4046 150.33 22.9167 150.396 22.4232C150.474 21.8577 151.317 21.1258 151.882 21.1646C152.326 21.1978 152.348 21.5472 152.42 21.8577C152.481 22.1404 152.442 22.3567 152.109 22.4842C151.921 22.5563 151.732 22.7614 151.655 22.95C151.527 23.2549 151.516 23.6098 151.411 23.9258C151.317 24.2086 151.145 24.4581 151.05 24.7409C150.995 24.9073 150.934 25.179 151.023 25.2621C151.505 25.7445 151.649 26.3489 151.699 26.9865C151.738 27.5133 151.893 27.9347 152.464 28.0788C152.531 28.0955 152.642 28.1731 152.636 28.1953C152.553 28.5224 152.492 28.8662 152.331 29.1601C152.265 29.2821 151.971 29.3652 151.81 29.332C150.989 29.1601 150.507 28.5501 150.396 27.7018C150.33 27.1972 150.224 26.6927 150.086 26.1992C149.986 25.8332 149.67 25.678 149.304 25.6669C149.01 25.6613 148.888 25.8499 148.888 26.1271C148.899 26.8756 148.899 27.6242 148.927 28.3727C148.949 28.9605 148.827 29.1046 148.234 29.1046C147.258 29.1046 147.263 29.1046 147.263 28.1177C147.263 27.164 147.263 26.2103 147.263 25.2566C147.263 25.2566 147.263 25.2566 147.258 25.2566L147.269 25.2344Z" fill="black"/>
<path d="M222.883 25.2118C222.883 26.2542 222.9 27.2966 222.872 28.339C222.867 28.5719 222.734 28.9434 222.578 28.9933C222.268 29.0931 221.896 29.0432 221.564 28.9822C221.475 28.9656 221.392 28.6606 221.386 28.4887C221.375 27.7568 221.392 27.0194 221.397 26.2875C221.397 25.8051 221.253 25.6609 220.765 25.6665C220.455 25.6665 220.15 25.6776 219.839 25.6776C219.335 25.6776 219.196 25.7885 219.196 26.2819C219.196 26.9861 219.207 27.6903 219.229 28.3945C219.246 28.9323 219.135 29.082 218.642 29.1042C217.854 29.143 217.693 29.0432 217.693 28.4444C217.693 26.3041 217.693 24.1583 217.693 22.018C217.693 21.519 217.799 21.4358 218.292 21.4247C218.381 21.4247 218.47 21.4247 218.558 21.4247C219.174 21.4358 219.224 21.4968 219.202 22.1123C219.179 22.7278 219.19 23.3432 219.179 23.9587C219.179 24.2858 219.335 24.4522 219.656 24.4577C220.022 24.4633 220.388 24.4577 220.754 24.4577C221.259 24.4633 221.392 24.3468 221.392 23.8478C221.392 23.2046 221.403 22.5559 221.386 21.9127C221.375 21.5523 221.514 21.4026 221.874 21.4137C222.867 21.4358 222.917 21.4137 222.867 22.3507C222.811 23.2989 222.856 24.2581 222.856 25.2118C222.861 25.2118 222.872 25.2118 222.878 25.2118H222.883Z" fill="black"/>
<path d="M189.591 25.927C189.591 25.0732 189.591 24.2248 189.591 23.3709C189.591 22.9218 189.475 22.7998 189.009 22.8109C188.643 22.8164 188.277 22.8497 187.911 22.8442C187.528 22.8331 187.423 22.6612 187.534 22.2897C187.772 21.4857 187.85 21.4358 188.709 21.4414C189.325 21.4414 189.946 21.4414 190.561 21.4192C190.938 21.4025 191.055 21.5578 191.049 21.9127C191.033 22.5725 191.055 23.2323 191.038 23.8921C191.027 24.2913 191.193 24.4411 191.582 24.4577C191.986 24.4743 192.397 24.5131 192.796 24.5908C193.86 24.7904 194.354 25.4613 194.448 26.5425C194.553 27.6736 194.143 28.4499 193.123 28.9157C192.968 28.9877 192.79 29.0432 192.618 29.0487C191.798 29.0654 190.972 29.0764 190.151 29.0654C189.674 29.0654 189.569 28.9212 189.574 28.4443C189.58 27.6071 189.574 26.7698 189.574 25.9326C189.574 25.9326 189.585 25.9326 189.591 25.9326V25.927ZM191.038 26.7865C191.038 26.8918 191.038 26.9916 191.038 27.097C190.999 27.9176 191.105 28.0119 191.898 27.8511C192.563 27.718 192.923 27.3631 192.918 26.8364C192.912 26.0712 192.735 25.866 191.925 25.6942C191.199 25.5445 191.005 25.7053 191.038 26.4316C191.038 26.548 191.038 26.6645 191.038 26.7865Z" fill="black"/>
<path d="M114.284 21.4255C114.472 21.4366 114.677 21.4088 114.849 21.4698C114.994 21.5197 115.177 21.6528 115.215 21.7859C115.642 23.1998 116.036 24.6248 116.457 26.0442C116.696 26.8538 116.979 27.6577 117.223 28.4673C117.378 28.9774 117.272 29.1049 116.735 29.0994C116.502 29.0994 116.263 29.0827 116.036 29.0439C115.709 28.9885 115.542 28.8 115.504 28.4506C115.365 27.1532 114.827 26.7706 113.557 27.0755C113.391 27.1144 113.219 27.3361 113.153 27.5136C113.009 27.8906 112.964 28.312 112.803 28.6835C112.726 28.861 112.493 29.055 112.315 29.0772C111.162 29.2214 111.079 29.1105 111.439 28.0126C111.75 27.0645 112.088 26.1274 112.382 25.1792C112.704 24.1479 112.992 23.1055 113.275 22.0631C113.441 21.4532 113.441 21.431 114.062 21.431C114.134 21.431 114.206 21.431 114.284 21.431V21.4199V21.4255ZM114.068 23.3938C113.851 24.2366 113.674 24.9131 113.519 25.5951C113.496 25.7005 113.574 25.9222 113.63 25.9278C113.968 25.9777 114.317 25.9999 114.655 25.9777C114.722 25.9777 114.844 25.706 114.816 25.584C114.705 25.0129 114.561 24.4473 114.4 23.8818C114.356 23.7321 114.217 23.6045 114.068 23.3938Z" fill="black"/>
<path d="M247.008 25.2451C247.008 24.1306 247.013 23.0162 247.008 21.9017C247.008 21.5579 247.158 21.4082 247.485 21.4248C248.588 21.4803 248.682 21.0977 248.632 22.5227C248.616 23.0051 248.621 23.493 248.61 23.9754C248.605 24.3413 248.743 24.4966 249.143 24.48C249.575 24.4633 250.024 24.5077 250.451 24.5964C251.172 24.7461 251.627 25.223 251.848 25.9216C252.297 27.341 251.798 28.4223 250.434 28.9878C250.318 29.0377 250.179 29.0599 250.052 29.0655C249.242 29.0765 248.438 29.0821 247.629 29.0821C247.113 29.0821 247.008 28.9656 247.013 28.4611C247.024 27.9177 247.019 27.3743 247.024 26.8309C247.024 26.3042 247.024 25.7719 247.024 25.2451H247.013H247.008ZM248.61 26.7866C248.61 26.8587 248.61 26.9307 248.61 27.0084C248.571 27.9731 248.571 27.9232 249.531 27.829C250.335 27.7514 250.595 26.8309 250.335 26.2598C250.163 25.8828 249.314 25.5057 248.876 25.6554C248.422 25.8107 248.655 26.221 248.616 26.526C248.605 26.6147 248.616 26.7034 248.616 26.7866H248.61Z" fill="black"/>
<path d="M127.824 25.4114C127.94 25.173 128.007 25.0787 128.035 24.9734C128.223 24.2525 128.401 23.5317 128.589 22.8109C128.711 22.3452 128.833 21.8849 128.966 21.4192C128.988 21.3416 129.072 21.2085 129.105 21.214C129.554 21.2917 130.003 21.3804 130.441 21.4968C130.48 21.5079 130.491 21.7685 130.452 21.896C130.175 22.822 129.876 23.7369 129.598 24.6629C129.249 25.8273 128.939 27.0027 128.567 28.156C128.279 29.0543 127.17 29.5478 126.272 29.2317C126.133 29.1818 125.994 29.143 125.85 29.0986C125.346 28.9268 125.251 28.7327 125.429 28.2392C125.623 27.7069 125.689 27.6792 126.227 27.9287C126.698 28.1449 127.026 28.0729 127.314 27.6903C127.636 27.2633 127.569 27.1136 127.07 26.9251C126.893 26.8586 126.721 26.659 126.649 26.4815C126.161 25.2395 125.706 23.9864 125.235 22.7388C125.14 22.4949 125.035 22.2509 124.924 22.0125C124.741 21.6022 124.852 21.4026 125.296 21.3471C125.412 21.3305 125.529 21.336 125.645 21.3138C126.36 21.1808 126.432 21.2251 126.654 21.9348C126.959 22.9274 127.264 23.9199 127.58 24.9124C127.619 25.0454 127.702 25.1619 127.824 25.4114Z" fill="black"/>
<path d="M225.443 25.2007C225.443 24.1029 225.449 22.9995 225.443 21.9016C225.443 21.5246 225.576 21.386 225.97 21.3971C226.935 21.4248 227.905 21.4137 228.876 21.4081C229.186 21.4081 229.569 21.2806 229.607 21.7796C229.646 22.2232 229.286 22.6169 228.837 22.6169C228.426 22.6169 228.016 22.6003 227.606 22.5892C227.123 22.5781 227.007 22.6834 227.007 23.1714C227.007 23.3488 227.013 23.5262 227.007 23.6981C226.99 24.3635 227.079 24.4522 227.761 24.4467C228.027 24.4467 228.288 24.4245 228.554 24.4134C228.981 24.3968 229.12 24.6574 229.136 25.0233C229.153 25.3948 229.014 25.6665 228.604 25.6887C228.282 25.7053 227.961 25.6831 227.634 25.6776C227.118 25.672 226.99 25.7996 226.996 26.3319C226.996 26.6701 227.007 27.0083 226.996 27.341C226.979 27.7347 227.168 27.9121 227.55 27.9066C228.049 27.901 228.548 27.8955 229.047 27.8788C229.463 27.8678 229.635 28.0175 229.646 28.4444C229.663 28.9102 229.508 29.0876 229.081 29.0876C228.038 29.0876 226.996 29.071 225.953 29.0821C225.554 29.0821 225.443 28.9046 225.443 28.5442C225.449 27.4297 225.443 26.3152 225.443 25.2007Z" fill="black"/>
<path d="M196.483 25.2397C196.483 24.1806 196.472 23.1271 196.483 22.0681C196.489 21.4859 196.583 21.4249 197.171 21.4249C198.108 21.4249 199.05 21.4305 199.987 21.4249C200.27 21.4249 200.57 21.3473 200.636 21.7521C200.697 22.1235 200.486 22.5061 200.132 22.5671C199.815 22.6226 199.488 22.6059 199.167 22.6004C198.047 22.5671 198.047 22.5616 198.019 23.6816C198.002 24.347 198.108 24.4579 198.762 24.4579C199.039 24.4579 199.322 24.4302 199.599 24.4302C200.01 24.4302 200.22 24.6464 200.242 25.0512C200.265 25.4448 200.059 25.6833 199.638 25.6999C199.272 25.711 198.906 25.6777 198.54 25.6666C198.196 25.6611 198.025 25.833 198.019 26.1767C198.019 26.5871 198.008 26.9974 198.008 27.4077C198.008 27.7903 198.257 27.9233 198.585 27.9233C199.067 27.9233 199.555 27.9012 200.037 27.8679C200.464 27.8402 200.636 27.9732 200.658 28.3946C200.686 28.8549 200.52 29.0822 200.126 29.0822C199.1 29.0822 198.069 29.0822 197.043 29.0656C196.555 29.06 196.461 28.9491 196.461 28.4501C196.461 27.38 196.461 26.3098 196.461 25.2341C196.461 25.2341 196.472 25.2341 196.478 25.2341L196.483 25.2397Z" fill="black"/>
<path d="M142.611 25.4007C142.672 25.8332 142.699 26.5152 142.877 27.1528C143.115 28.0178 143.964 28.3006 144.74 27.857C145.278 27.5465 145.339 27.5742 145.677 28.2174C145.86 28.5667 145.771 28.783 145.311 28.9937C143.836 29.6701 142.428 29.3374 141.546 27.9679C141.286 27.5687 141.141 27.0419 141.103 26.5651C141.03 25.7666 141.008 24.946 141.097 24.1476C141.23 22.9166 141.712 21.841 142.955 21.3198C143.709 21.0037 145.023 21.1701 145.666 21.8354C145.744 21.9186 145.732 22.1127 145.71 22.2513C145.699 22.34 145.588 22.4121 145.533 22.5008C145.322 22.8298 145.052 22.8963 144.723 22.7004C143.847 22.1792 143.004 22.4897 142.755 23.4933C142.622 24.0256 142.655 24.5967 142.6 25.3951L142.611 25.4007Z" fill="black"/>
<path d="M252.746 25.1625C252.746 24.0924 252.757 23.0223 252.741 21.9466C252.735 21.6028 252.868 21.4475 253.184 21.4365C254.271 21.4032 254.326 21.3145 254.304 22.4401C254.265 24.4195 254.304 26.4045 254.315 28.384C254.315 28.9939 254.21 29.1159 253.606 29.0882C252.774 29.0494 252.735 28.9939 252.741 28.1511C252.752 27.1531 252.741 26.155 252.741 25.157L252.746 25.1625Z" fill="black"/>
<path d="M164.407 21.054C163.725 21.0762 163.192 20.8433 162.804 20.3277C162.66 20.1391 162.427 19.9063 162.682 19.6789C162.932 19.4516 163.27 19.3906 163.575 19.5957C163.836 19.7676 164.063 20.1114 164.318 20.128C164.545 20.1391 164.767 19.7288 165.039 19.6401C165.31 19.5514 165.715 19.5181 165.92 19.6623C166.192 19.8564 166.004 20.189 165.804 20.4275C165.427 20.8766 164.95 21.0817 164.407 21.054Z" fill="black"/>
<path d="M259.411 21.0648C258.995 21.087 258.463 20.9096 258.041 20.4327C257.775 20.1389 257.731 19.7951 257.953 19.6176C258.263 19.3681 258.668 19.4291 258.884 19.7507C259.222 20.2553 259.627 20.283 260.032 19.8283C260.137 19.7119 260.259 19.5289 260.376 19.5234C260.603 19.5123 260.958 19.5345 261.041 19.6731C261.141 19.8394 261.085 20.1888 260.974 20.3828C260.725 20.8098 260.182 21.0371 259.405 21.0593L259.411 21.0648Z" fill="black"/>
<path d="M228.444 20.6765C227.978 20.682 227.673 20.3882 227.662 19.9169C227.651 19.4844 228.062 19.0131 228.45 19.0186C228.766 19.0186 229.287 19.5398 229.298 19.8614C229.309 20.305 228.927 20.6654 228.444 20.6765Z" fill="black"/>
<path d="M227.173 19.8616C227.168 20.4216 226.918 20.6988 226.43 20.6878C225.937 20.6767 225.721 20.4161 225.721 19.8339C225.721 19.3958 226.087 19.0188 226.491 19.041C226.891 19.0576 227.179 19.4069 227.173 19.8616Z" fill="black"/>
</svg>
