<svg width="22" height="22" viewBox="0 0 22 22" fill="none" xmlns="http://www.w3.org/2000/svg">
<path fill-rule="evenodd" clip-rule="evenodd" d="M10.9302 21.2472C8.83 21.2472 7.854 20.9406 6.15751 19.7142C5.08441 21.0939 1.6863 22.1721 1.5381 20.3274C1.5381 18.9426 1.2315 17.7724 0.884016 16.4949C0.47012 14.9211 0 13.1683 0 10.6287C0 4.56319 4.97711 0 10.874 0C16.776 0 21.4005 4.78803 21.4005 10.6849C21.4203 16.4906 16.7359 21.2162 10.9302 21.2472ZM11.0171 5.2428C8.14528 5.09463 5.9071 7.0824 5.41145 10.1995C5.00265 12.78 5.72827 15.9226 6.34656 16.0861C6.64294 16.1577 7.389 15.5547 7.854 15.0897C8.62292 15.6209 9.51832 15.9399 10.4499 16.0146C13.4255 16.1577 15.9681 13.8924 16.1679 10.92C16.2842 7.9413 13.9931 5.41839 11.0171 5.24793V5.2428Z" fill="white"/>
</svg>
