<svg width="39" height="39" viewBox="0 0 39 39" fill="none" xmlns="http://www.w3.org/2000/svg">
<g clip-path="url(#clip0_44_5574)">
<path d="M28.8123 0H9.58775C4.29258 0 0 4.29258 0 9.58775V28.8123C0 34.1074 4.29258 38.4 9.58775 38.4H28.8123C34.1074 38.4 38.4 34.1074 38.4 28.8123V9.58775C38.4 4.29258 34.1074 0 28.8123 0Z" fill="url(#paint0_linear_44_5574)"/>
<path d="M28.8123 0H9.58775C4.29258 0 0 4.29258 0 9.58775V28.8123C0 34.1074 4.29258 38.4 9.58775 38.4H28.8123C34.1074 38.4 38.4 34.1074 38.4 28.8123V9.58775C38.4 4.29258 34.1074 0 28.8123 0Z" fill="url(#paint1_radial_44_5574)"/>
<path fill-rule="evenodd" clip-rule="evenodd" d="M19.5154 33.7269C16.6351 33.7269 15.2966 33.3064 12.97 31.6245C11.4983 33.5166 6.83803 34.9954 6.63478 32.4654C6.63478 30.5663 6.2143 28.9615 5.73776 27.2095C5.17013 25.0511 4.52539 22.6473 4.52539 19.1644C4.52539 10.846 11.3511 4.58789 19.4383 4.58789C27.5324 4.58789 33.8747 11.1543 33.8747 19.2415C33.9018 27.2036 27.4774 33.6844 19.5154 33.7269ZM19.6345 11.778C15.6961 11.5748 12.6266 14.3009 11.9468 18.5757C11.3862 22.1148 12.3813 26.4246 13.2293 26.6489C13.6357 26.747 14.6589 25.9201 15.2966 25.2823C16.3511 26.0108 17.5791 26.4483 18.8567 26.5508C22.9375 26.7471 26.4245 23.6403 26.6985 19.5639C26.858 15.4788 23.716 12.0188 19.6345 11.785V11.778Z" fill="white"/>
</g>
<defs>
<linearGradient id="paint0_linear_44_5574" x1="4.52533" y1="29.2046" x2="38.4" y2="19.2" gradientUnits="userSpaceOnUse">
<stop stop-color="#44CCFF"/>
<stop offset="0.662" stop-color="#5533EE"/>
<stop offset="1" stop-color="#9933DD"/>
</linearGradient>
<radialGradient id="paint1_radial_44_5574" cx="0" cy="0" r="1" gradientUnits="userSpaceOnUse" gradientTransform="translate(-0.913566 -16.8647) rotate(51.356) scale(46.5991 19.2)">
<stop stop-color="#0000FF"/>
<stop offset="1" stop-opacity="0"/>
</radialGradient>
<clipPath id="clip0_44_5574">
<rect width="38.4" height="38.4" fill="white"/>
</clipPath>
</defs>
</svg>
