<svg width="14" height="20" viewBox="0 0 14 20" fill="none" xmlns="http://www.w3.org/2000/svg">
<path d="M6.67964 9.828C8.03764 9.828 9.26964 9.268 10.1516 8.386C11.0336 7.504 11.5936 6.272 11.5936 4.914C11.5936 3.556 11.0336 2.324 10.1516 1.442C9.26964 0.56 8.03764 0 6.67964 0C5.32162 0 4.08962 0.56 3.20762 1.442C2.32562 2.31 1.76562 3.542 1.76562 4.914C1.76562 6.286 2.32562 7.504 3.20762 8.386C4.08962 9.268 5.33562 9.828 6.67964 9.828ZM5.11163 3.318C5.51763 2.912 6.07762 2.66 6.69364 2.66C7.32364 2.66 7.86964 2.912 8.27564 3.318C8.68164 3.724 8.93364 4.284 8.93364 4.9C8.93364 5.53 8.68164 6.076 8.27564 6.482C7.86964 6.888 7.30964 7.14 6.69364 7.14C6.06362 7.14 5.51763 6.888 5.11163 6.482C4.70563 6.076 4.45362 5.516 4.45362 4.9C4.45362 4.284 4.71963 3.724 5.11163 3.318Z" fill="white"/>
<path d="M13.3168 11.8175L11.8748 9.84354C11.7908 9.73154 11.6228 9.71754 11.5248 9.81554C10.1668 10.9775 8.48682 11.7335 6.68082 11.7335C4.87482 11.7335 3.20882 10.9775 1.83682 9.81554C1.73882 9.73154 1.57082 9.74554 1.48682 9.84354L0.0448194 11.8175C-0.0251806 11.9155 -0.0111805 12.0415 0.0728195 12.1255C1.29082 13.1055 2.70482 13.7775 4.17482 14.1275L1.12282 19.5035C1.03882 19.6575 1.15082 19.8535 1.31882 19.8535H4.30082C4.39882 19.8535 4.48282 19.7975 4.51082 19.6995L6.63882 14.9395L8.76682 19.6995C8.79482 19.7835 8.87882 19.8535 8.97682 19.8535H11.9588C12.1408 19.8535 12.2388 19.6715 12.1548 19.5035L9.10282 14.1275C10.5728 13.7775 11.9868 13.1335 13.2048 12.1255C13.3868 12.0415 13.4008 11.9155 13.3168 11.8175Z" fill="white"/>
</svg>
