<svg width="20" height="20" viewBox="0 0 20 20" fill="none" xmlns="http://www.w3.org/2000/svg">
<path d="M10 13.333L17.5 13.333" stroke="#694B43" stroke-linecap="round" stroke-linejoin="round"/>
<path d="M2.5 13.333H4.16667" stroke="#694B43" stroke-linecap="round" stroke-linejoin="round"/>
<path d="M7.08333 15.4167C8.23393 15.4167 9.16667 14.4839 9.16667 13.3333C9.16667 12.1827 8.23393 11.25 7.08333 11.25C5.93274 11.25 5 12.1827 5 13.3333C5 14.4839 5.93274 15.4167 7.08333 15.4167Z" stroke="#694B43" stroke-linecap="round" stroke-linejoin="round"/>
<path d="M15.834 6.66699H17.5007" stroke="#694B43" stroke-linecap="round" stroke-linejoin="round"/>
<path d="M2.5 6.66699H10" stroke="#694B43" stroke-linecap="round" stroke-linejoin="round"/>
<path d="M12.9173 8.74967C14.0679 8.74967 15.0007 7.81693 15.0007 6.66634C15.0007 5.51575 14.0679 4.58301 12.9173 4.58301C11.7667 4.58301 10.834 5.51575 10.834 6.66634C10.834 7.81693 11.7667 8.74967 12.9173 8.74967Z" stroke="#694B43" stroke-linecap="round" stroke-linejoin="round"/>
</svg>
