<svg width="16" height="13" viewBox="0 0 16 13" fill="none" xmlns="http://www.w3.org/2000/svg">
<path fill-rule="evenodd" clip-rule="evenodd" d="M1.04259 5.42377C5.12499 3.64577 7.84659 2.47257 9.20739 1.90697C13.0966 0.288571 13.903 0.00857024 14.4294 0.000170242C14.5442 -0.00262976 14.8046 0.0281699 14.9726 0.16257C15.1154 0.27737 15.1546 0.43137 15.1714 0.54057C15.1882 0.64977 15.2134 0.89897 15.1938 1.09217C14.9838 3.30697 14.071 8.67737 13.609 11.1582C13.413 12.2082 13.0266 12.5582 12.6514 12.5946C11.8394 12.6702 11.2206 12.057 10.4338 11.5418C9.20179 10.7354 8.50459 10.2314 7.30899 9.44177C5.92579 8.53177 6.82179 8.03057 7.61139 7.21297C7.81859 7.00017 11.3998 3.74097 11.4698 3.44417C11.4782 3.40777 11.4866 3.27057 11.4054 3.19777C11.3242 3.12497 11.2038 3.15017 11.1142 3.16977C10.991 3.19777 9.02259 4.49977 5.20899 7.07297C4.64899 7.45657 4.14499 7.64417 3.69139 7.63297C3.19019 7.62177 2.22979 7.35017 1.51579 7.11777C0.63939 6.83217 -0.0578098 6.68097 0.00379025 6.19937C0.0345902 5.94457 0.38179 5.68697 1.04259 5.42377Z" fill="white"/>
</svg>
