<svg width="22" height="22" viewBox="0 0 22 22" fill="none" xmlns="http://www.w3.org/2000/svg">
<path d="M20.1668 6.58337C20.1668 5.4788 19.2714 4.58337 18.1668 4.58337H3.8335C2.72893 4.58337 1.8335 5.47881 1.8335 6.58337V8.25004C3.35228 8.25004 4.5835 9.48126 4.5835 11C4.5835 12.5188 3.35228 13.75 1.8335 13.75V15.4167C1.8335 16.5213 2.72893 17.4167 3.8335 17.4167H18.1668C19.2714 17.4167 20.1668 16.5213 20.1668 15.4167V13.75C18.648 13.75 17.4168 12.5188 17.4168 11C17.4168 9.48126 18.648 8.25004 20.1668 8.25004V6.58337Z" stroke="#694B43" stroke-linecap="round" stroke-linejoin="round"/>
<path d="M8.25 4.58337V17.4167" stroke="#694B43" stroke-linecap="round"/>
</svg>
