<svg width="39" height="39" viewBox="0 0 39 39" fill="none" xmlns="http://www.w3.org/2000/svg">
<g clip-path="url(#clip0_44_5577)">
<mask id="mask0_44_5577" style="mask-type:luminance" maskUnits="userSpaceOnUse" x="0" y="0" width="39" height="39">
<path d="M38.2093 0H0.189453V38.0198H38.2093V0Z" fill="white"/>
</mask>
<g mask="url(#mask0_44_5577)">
<path d="M0.189453 18.2495C0.189453 9.64661 0.189453 5.34517 2.86203 2.67258C5.53462 0 9.83607 0 18.439 0H19.9598C28.5626 0 32.8641 0 35.5367 2.67258C38.2093 5.34517 38.2093 9.64661 38.2093 18.2495V19.7703C38.2093 28.3732 38.2093 32.6746 35.5367 35.3472C32.8641 38.0198 28.5626 38.0198 19.9598 38.0198H18.439C9.83607 38.0198 5.53462 38.0198 2.86203 35.3472C0.189453 32.6746 0.189453 28.3732 0.189453 19.7703V18.2495Z" fill="#0077FF"/>
<path d="M20.4193 27.3902C11.754 27.3902 6.81142 21.4496 6.60547 11.5645H10.9461C11.0887 18.8199 14.2886 21.8931 16.8232 22.5268V11.5645H20.9105V17.8218C23.4135 17.5525 26.0428 14.7011 26.93 11.5645H31.0172C30.336 15.4298 27.4845 18.2813 25.4568 19.4535C27.4845 20.404 30.7322 22.8912 31.9679 27.3902H27.4687C26.5024 24.3803 24.0947 22.0516 20.9105 21.7347V27.3902H20.4193Z" fill="white"/>
</g>
</g>
<defs>
<clipPath id="clip0_44_5577">
<rect width="38.4" height="38.0198" fill="white"/>
</clipPath>
</defs>
</svg>
